<mxfile host="app.diagrams.net" modified="2022-08-20T11:46:04.046Z" agent="5.0 (Windows NT 10.0; Win64; x64) AppleWebKit/537.36 (KHTML, like Gecko) Chrome/104.0.5112.102 Safari/537.36 Edg/104.0.1293.63" etag="ihzsVuJHIh-rs5-EeJnP" version="20.2.5" type="github">
  <diagram id="OAaraVHbdksEuVrTxPXe" name="PÃ¡gina-1">
    <mxGraphModel dx="4583" dy="2513" grid="1" gridSize="10" guides="1" tooltips="1" connect="1" arrows="1" fold="1" page="1" pageScale="1" pageWidth="1169" pageHeight="1654" math="0" shadow="0">
      <root>
        <mxCell id="0" />
        <mxCell id="1" parent="0" />
        <mxCell id="wulNQaCiWQsxGU0T-WLS-17" style="edgeStyle=orthogonalEdgeStyle;rounded=0;orthogonalLoop=1;jettySize=auto;html=1;exitX=0.5;exitY=1;exitDx=0;exitDy=0;exitPerimeter=0;entryX=0.5;entryY=0;entryDx=0;entryDy=0;strokeColor=#B3B3B3;endArrow=block;endFill=1;" parent="1" source="wulNQaCiWQsxGU0T-WLS-2" target="wulNQaCiWQsxGU0T-WLS-16" edge="1">
          <mxGeometry relative="1" as="geometry" />
        </mxCell>
        <mxCell id="wulNQaCiWQsxGU0T-WLS-2" value="&lt;font color=&quot;#666666&quot; style=&quot;font-size: 8px;&quot;&gt;Start&lt;br&gt;Main&lt;/font&gt;" style="strokeWidth=1;html=1;shape=mxgraph.flowchart.start_2;whiteSpace=wrap;fillColor=#DEF2DD;strokeColor=#82b366;" parent="1" vertex="1">
          <mxGeometry x="235" y="80" width="50" height="50" as="geometry" />
        </mxCell>
        <mxCell id="wulNQaCiWQsxGU0T-WLS-15" value="&lt;font color=&quot;#666666&quot; style=&quot;font-size: 8px;&quot;&gt;End&lt;br&gt;Main&lt;br&gt;&lt;/font&gt;" style="strokeWidth=1;html=1;shape=mxgraph.flowchart.start_2;whiteSpace=wrap;fillColor=#fff0f0;strokeColor=#ff8f8f;" parent="1" vertex="1">
          <mxGeometry x="235" y="1770" width="50" height="50" as="geometry" />
        </mxCell>
        <mxCell id="wulNQaCiWQsxGU0T-WLS-19" style="edgeStyle=orthogonalEdgeStyle;rounded=0;orthogonalLoop=1;jettySize=auto;html=1;exitX=0.5;exitY=1;exitDx=0;exitDy=0;entryX=0.5;entryY=0;entryDx=0;entryDy=0;endArrow=block;endFill=1;strokeColor=#B3B3B3;" parent="1" source="wulNQaCiWQsxGU0T-WLS-16" target="wulNQaCiWQsxGU0T-WLS-18" edge="1">
          <mxGeometry relative="1" as="geometry" />
        </mxCell>
        <mxCell id="wulNQaCiWQsxGU0T-WLS-16" value="DataTable&lt;br&gt;dtCalendar" style="shape=parallelogram;html=1;strokeWidth=1;perimeter=parallelogramPerimeter;whiteSpace=wrap;rounded=1;arcSize=12;size=0.23;fontSize=8;fontColor=#666666;fillColor=#fff0fb;strokeColor=#ff80df;" parent="1" vertex="1">
          <mxGeometry x="220" y="150" width="80" height="40" as="geometry" />
        </mxCell>
        <mxCell id="wulNQaCiWQsxGU0T-WLS-32" style="edgeStyle=orthogonalEdgeStyle;rounded=0;orthogonalLoop=1;jettySize=auto;html=1;exitX=0.5;exitY=1;exitDx=0;exitDy=0;entryX=0.504;entryY=-0.008;entryDx=0;entryDy=0;entryPerimeter=0;endArrow=block;endFill=1;strokeColor=#B3B3B3;" parent="1" source="wulNQaCiWQsxGU0T-WLS-18" target="wulNQaCiWQsxGU0T-WLS-20" edge="1">
          <mxGeometry relative="1" as="geometry" />
        </mxCell>
        <mxCell id="wulNQaCiWQsxGU0T-WLS-18" value="&lt;font style=&quot;font-size: 8px;&quot; color=&quot;#666666&quot;&gt;Assign: CurrentDate, Counter&lt;/font&gt;" style="rounded=1;whiteSpace=wrap;html=1;absoluteArcSize=1;arcSize=14;strokeWidth=1;fontColor=#000000;fillColor=#d7faf5;strokeColor=#00c2a8;" parent="1" vertex="1">
          <mxGeometry x="220" y="210" width="80" height="40" as="geometry" />
        </mxCell>
        <mxCell id="wulNQaCiWQsxGU0T-WLS-52" style="edgeStyle=orthogonalEdgeStyle;rounded=0;orthogonalLoop=1;jettySize=auto;html=1;exitX=0.5;exitY=1;exitDx=0;exitDy=0;entryX=0.5;entryY=0;entryDx=0;entryDy=0;fontSize=8;fontColor=#B3B3B3;endArrow=block;endFill=1;strokeColor=#B3B3B3;" parent="1" source="wulNQaCiWQsxGU0T-WLS-20" target="wulNQaCiWQsxGU0T-WLS-48" edge="1">
          <mxGeometry relative="1" as="geometry" />
        </mxCell>
        <mxCell id="wulNQaCiWQsxGU0T-WLS-20" value="For each Row in dtCalendar" style="swimlane;fontSize=8;strokeColor=#B3B3B3;strokeWidth=1;fillColor=#f5f5f5;fontColor=#666666;" parent="1" vertex="1">
          <mxGeometry x="160" y="270" width="200" height="330" as="geometry">
            <mxRectangle x="380" y="300" width="120" height="23" as="alternateBounds" />
          </mxGeometry>
        </mxCell>
        <mxCell id="wulNQaCiWQsxGU0T-WLS-35" style="edgeStyle=orthogonalEdgeStyle;rounded=0;orthogonalLoop=1;jettySize=auto;html=1;exitX=0.5;exitY=1;exitDx=0;exitDy=0;entryX=0.5;entryY=0;entryDx=0;entryDy=0;entryPerimeter=0;fontSize=6;fontColor=#666666;endArrow=block;endFill=1;strokeColor=#B3B3B3;" parent="wulNQaCiWQsxGU0T-WLS-20" source="wulNQaCiWQsxGU0T-WLS-22" target="wulNQaCiWQsxGU0T-WLS-34" edge="1">
          <mxGeometry relative="1" as="geometry" />
        </mxCell>
        <mxCell id="wulNQaCiWQsxGU0T-WLS-22" value="&lt;font color=&quot;#666666&quot;&gt;&lt;span style=&quot;font-size: 8px;&quot;&gt;Assign: Input, DateInput&lt;/span&gt;&lt;/font&gt;" style="rounded=1;whiteSpace=wrap;html=1;absoluteArcSize=1;arcSize=14;strokeWidth=1;fontColor=#000000;fillColor=#d7faf5;strokeColor=#00c2a8;" parent="wulNQaCiWQsxGU0T-WLS-20" vertex="1">
          <mxGeometry x="60" y="45" width="80" height="40" as="geometry" />
        </mxCell>
        <mxCell id="wulNQaCiWQsxGU0T-WLS-40" style="edgeStyle=orthogonalEdgeStyle;rounded=0;orthogonalLoop=1;jettySize=auto;html=1;exitX=0.5;exitY=1;exitDx=0;exitDy=0;exitPerimeter=0;entryX=0.5;entryY=0;entryDx=0;entryDy=0;fontSize=6;fontColor=#666666;endArrow=block;endFill=1;strokeColor=#B3B3B3;startArrow=none;" parent="wulNQaCiWQsxGU0T-WLS-20" source="wulNQaCiWQsxGU0T-WLS-43" target="wulNQaCiWQsxGU0T-WLS-36" edge="1">
          <mxGeometry relative="1" as="geometry" />
        </mxCell>
        <mxCell id="wulNQaCiWQsxGU0T-WLS-34" value="&lt;span style=&quot;font-size: 6px;&quot;&gt;&lt;font color=&quot;#666666&quot;&gt;currentDate &amp;lt; dateInput And Row.Item(&quot;Category&quot;).ToString &amp;lt;&amp;gt; &quot;Non-Working Day&quot; And counter &amp;lt; 1&lt;/font&gt;&lt;/span&gt;" style="strokeWidth=1;html=1;shape=mxgraph.flowchart.decision;whiteSpace=wrap;fontSize=8;fillColor=#fff2cc;strokeColor=#d6b656;" parent="wulNQaCiWQsxGU0T-WLS-20" vertex="1">
          <mxGeometry x="60" y="110" width="80" height="80" as="geometry" />
        </mxCell>
        <mxCell id="wulNQaCiWQsxGU0T-WLS-42" style="edgeStyle=orthogonalEdgeStyle;rounded=0;orthogonalLoop=1;jettySize=auto;html=1;exitX=0.5;exitY=1;exitDx=0;exitDy=0;entryX=0.5;entryY=0;entryDx=0;entryDy=0;entryPerimeter=0;fontSize=6;fontColor=#666666;endArrow=block;endFill=1;strokeColor=#B3B3B3;" parent="wulNQaCiWQsxGU0T-WLS-20" source="wulNQaCiWQsxGU0T-WLS-36" target="wulNQaCiWQsxGU0T-WLS-41" edge="1">
          <mxGeometry relative="1" as="geometry" />
        </mxCell>
        <mxCell id="wulNQaCiWQsxGU0T-WLS-36" value="&lt;font color=&quot;#666666&quot;&gt;&lt;span style=&quot;font-size: 8px;&quot;&gt;Assign: Input, DateInput&lt;/span&gt;&lt;/font&gt;" style="rounded=1;whiteSpace=wrap;html=1;absoluteArcSize=1;arcSize=14;strokeWidth=1;fontColor=#000000;fillColor=#d7faf5;strokeColor=#00c2a8;" parent="wulNQaCiWQsxGU0T-WLS-20" vertex="1">
          <mxGeometry x="60" y="233" width="80" height="40" as="geometry" />
        </mxCell>
        <mxCell id="wulNQaCiWQsxGU0T-WLS-41" value="" style="strokeWidth=2;html=1;shape=mxgraph.flowchart.start_2;whiteSpace=wrap;fontSize=8;fontColor=#666666;fillColor=#B3B3B3;strokeColor=none;" parent="wulNQaCiWQsxGU0T-WLS-20" vertex="1">
          <mxGeometry x="90" y="293" width="20" height="20" as="geometry" />
        </mxCell>
        <mxCell id="wulNQaCiWQsxGU0T-WLS-43" value="&lt;font color=&quot;#b3b3b3&quot; style=&quot;font-size: 8px;&quot;&gt;True&lt;/font&gt;" style="text;html=1;strokeColor=none;fillColor=default;align=center;verticalAlign=middle;whiteSpace=wrap;rounded=0;dashed=1;labelBorderColor=#FFFFFF;fontSize=8;fontColor=#999999;" parent="wulNQaCiWQsxGU0T-WLS-20" vertex="1">
          <mxGeometry x="90" y="200" width="20" height="15" as="geometry" />
        </mxCell>
        <mxCell id="wulNQaCiWQsxGU0T-WLS-44" value="" style="edgeStyle=orthogonalEdgeStyle;rounded=0;orthogonalLoop=1;jettySize=auto;html=1;exitX=0.5;exitY=1;exitDx=0;exitDy=0;exitPerimeter=0;entryX=0.5;entryY=0;entryDx=0;entryDy=0;fontSize=6;fontColor=#666666;endArrow=none;endFill=1;strokeColor=#B3B3B3;" parent="wulNQaCiWQsxGU0T-WLS-20" source="wulNQaCiWQsxGU0T-WLS-34" target="wulNQaCiWQsxGU0T-WLS-43" edge="1">
          <mxGeometry relative="1" as="geometry">
            <mxPoint x="260" y="460" as="sourcePoint" />
            <mxPoint x="260" y="506" as="targetPoint" />
          </mxGeometry>
        </mxCell>
        <mxCell id="wulNQaCiWQsxGU0T-WLS-45" style="edgeStyle=orthogonalEdgeStyle;rounded=0;orthogonalLoop=1;jettySize=auto;html=1;exitX=1;exitY=0.5;exitDx=0;exitDy=0;exitPerimeter=0;entryX=1;entryY=0.5;entryDx=0;entryDy=0;entryPerimeter=0;fontSize=6;fontColor=#666666;endArrow=block;endFill=1;strokeColor=#B3B3B3;" parent="wulNQaCiWQsxGU0T-WLS-20" source="wulNQaCiWQsxGU0T-WLS-34" target="wulNQaCiWQsxGU0T-WLS-41" edge="1">
          <mxGeometry relative="1" as="geometry">
            <Array as="points">
              <mxPoint x="180" y="150" />
              <mxPoint x="180" y="303" />
            </Array>
          </mxGeometry>
        </mxCell>
        <mxCell id="wulNQaCiWQsxGU0T-WLS-47" value="&lt;font style=&quot;font-size: 8px;&quot;&gt;False&lt;/font&gt;" style="edgeLabel;html=1;align=center;verticalAlign=middle;resizable=0;points=[];fontSize=6;fontColor=#B3B3B3;labelBorderColor=#FFFFFF;" parent="wulNQaCiWQsxGU0T-WLS-45" vertex="1" connectable="0">
          <mxGeometry x="-0.9011" relative="1" as="geometry">
            <mxPoint x="7" as="offset" />
          </mxGeometry>
        </mxCell>
        <mxCell id="wulNQaCiWQsxGU0T-WLS-37" value="" style="strokeWidth=1;html=1;shape=mxgraph.flowchart.annotation_2;align=left;labelPosition=right;pointerEvents=1;fontSize=6;fontColor=#666666;strokeColor=#B3B3B3;" parent="1" vertex="1">
          <mxGeometry x="110" y="150" width="30" height="450" as="geometry" />
        </mxCell>
        <mxCell id="wulNQaCiWQsxGU0T-WLS-38" value="Sequence: NextWorkingDay" style="text;html=1;strokeColor=none;fillColor=none;align=right;verticalAlign=middle;whiteSpace=wrap;rounded=0;fontSize=6;fontColor=#666666;" parent="1" vertex="1">
          <mxGeometry x="50" y="360" width="60" height="30" as="geometry" />
        </mxCell>
        <mxCell id="wulNQaCiWQsxGU0T-WLS-54" style="edgeStyle=orthogonalEdgeStyle;rounded=0;orthogonalLoop=1;jettySize=auto;html=1;exitX=0.5;exitY=1;exitDx=0;exitDy=0;entryX=0.5;entryY=0;entryDx=0;entryDy=0;fontSize=8;fontColor=#B3B3B3;endArrow=block;endFill=1;strokeColor=#B3B3B3;" parent="1" source="wulNQaCiWQsxGU0T-WLS-48" target="wulNQaCiWQsxGU0T-WLS-53" edge="1">
          <mxGeometry relative="1" as="geometry" />
        </mxCell>
        <mxCell id="wulNQaCiWQsxGU0T-WLS-48" value="&lt;font color=&quot;#666666&quot;&gt;&lt;span style=&quot;font-size: 8px;&quot;&gt;Assign: DateAndTime,&amp;nbsp;dateAndTimeArray, currentTime&lt;/span&gt;&lt;/font&gt;" style="rounded=1;whiteSpace=wrap;html=1;absoluteArcSize=1;arcSize=14;strokeWidth=1;fontColor=#000000;fillColor=#d7faf5;strokeColor=#00c2a8;" parent="1" vertex="1">
          <mxGeometry x="220" y="620" width="80" height="40" as="geometry" />
        </mxCell>
        <mxCell id="wulNQaCiWQsxGU0T-WLS-50" value="" style="strokeWidth=1;html=1;shape=mxgraph.flowchart.annotation_2;align=left;labelPosition=right;pointerEvents=1;fontSize=6;fontColor=#666666;strokeColor=#B3B3B3;" parent="1" vertex="1">
          <mxGeometry x="110" y="620" width="30" height="40" as="geometry" />
        </mxCell>
        <mxCell id="wulNQaCiWQsxGU0T-WLS-51" value="Sequence: CurrentTime" style="text;html=1;strokeColor=none;fillColor=none;align=right;verticalAlign=middle;whiteSpace=wrap;rounded=0;fontSize=6;fontColor=#666666;" parent="1" vertex="1">
          <mxGeometry x="50" y="625" width="60" height="30" as="geometry" />
        </mxCell>
        <mxCell id="wulNQaCiWQsxGU0T-WLS-56" style="edgeStyle=orthogonalEdgeStyle;rounded=0;orthogonalLoop=1;jettySize=auto;html=1;exitX=0.5;exitY=1;exitDx=0;exitDy=0;entryX=0.5;entryY=0;entryDx=0;entryDy=0;entryPerimeter=0;fontSize=8;fontColor=#B3B3B3;endArrow=block;endFill=1;strokeColor=#B3B3B3;" parent="1" source="wulNQaCiWQsxGU0T-WLS-53" target="wulNQaCiWQsxGU0T-WLS-55" edge="1">
          <mxGeometry relative="1" as="geometry" />
        </mxCell>
        <mxCell id="wulNQaCiWQsxGU0T-WLS-53" value="&lt;font color=&quot;#666666&quot;&gt;&lt;span style=&quot;font-size: 8px;&quot;&gt;Assign: At3pm, At6pm, At7pm, DoNothing&lt;/span&gt;&lt;/font&gt;" style="rounded=1;whiteSpace=wrap;html=1;absoluteArcSize=1;arcSize=14;strokeWidth=1;fontColor=#000000;fillColor=#d7faf5;strokeColor=#00c2a8;" parent="1" vertex="1">
          <mxGeometry x="220" y="680" width="80" height="40" as="geometry" />
        </mxCell>
        <mxCell id="wulNQaCiWQsxGU0T-WLS-100" style="edgeStyle=orthogonalEdgeStyle;rounded=0;orthogonalLoop=1;jettySize=auto;html=1;exitX=1;exitY=0.5;exitDx=0;exitDy=0;exitPerimeter=0;entryX=1;entryY=0.5;entryDx=0;entryDy=0;entryPerimeter=0;fontSize=8;fontColor=#B3B3B3;endArrow=block;endFill=1;strokeColor=#B3B3B3;" parent="1" source="wulNQaCiWQsxGU0T-WLS-55" target="wulNQaCiWQsxGU0T-WLS-99" edge="1">
          <mxGeometry relative="1" as="geometry">
            <Array as="points">
              <mxPoint x="380" y="780" />
              <mxPoint x="380" y="1740" />
            </Array>
          </mxGeometry>
        </mxCell>
        <mxCell id="wulNQaCiWQsxGU0T-WLS-101" value="True" style="edgeLabel;html=1;align=center;verticalAlign=middle;resizable=0;points=[];fontSize=8;fontColor=#B3B3B3;" parent="wulNQaCiWQsxGU0T-WLS-100" vertex="1" connectable="0">
          <mxGeometry x="-0.9766" y="1" relative="1" as="geometry">
            <mxPoint x="7" y="1" as="offset" />
          </mxGeometry>
        </mxCell>
        <mxCell id="wulNQaCiWQsxGU0T-WLS-106" style="edgeStyle=orthogonalEdgeStyle;rounded=0;orthogonalLoop=1;jettySize=auto;html=1;exitX=0.5;exitY=1;exitDx=0;exitDy=0;exitPerimeter=0;entryX=0.5;entryY=0;entryDx=0;entryDy=0;fontSize=8;fontColor=#B3B3B3;endArrow=block;endFill=1;strokeColor=#B3B3B3;startArrow=none;" parent="1" source="wulNQaCiWQsxGU0T-WLS-107" target="wulNQaCiWQsxGU0T-WLS-58" edge="1">
          <mxGeometry relative="1" as="geometry" />
        </mxCell>
        <mxCell id="wulNQaCiWQsxGU0T-WLS-55" value="&lt;font style=&quot;font-size: 8px;&quot; color=&quot;#666666&quot;&gt;DoNothing&lt;/font&gt;" style="strokeWidth=1;html=1;shape=mxgraph.flowchart.decision;whiteSpace=wrap;fontSize=8;fillColor=#fff2cc;strokeColor=#d6b656;" parent="1" vertex="1">
          <mxGeometry x="220" y="740" width="80" height="80" as="geometry" />
        </mxCell>
        <mxCell id="wulNQaCiWQsxGU0T-WLS-70" style="edgeStyle=orthogonalEdgeStyle;rounded=0;orthogonalLoop=1;jettySize=auto;html=1;exitX=0.5;exitY=1;exitDx=0;exitDy=0;exitPerimeter=0;entryX=0.5;entryY=0;entryDx=0;entryDy=0;entryPerimeter=0;fontSize=8;fontColor=#B3B3B3;endArrow=block;endFill=1;strokeColor=#B3B3B3;startArrow=none;" parent="1" source="wulNQaCiWQsxGU0T-WLS-71" target="wulNQaCiWQsxGU0T-WLS-65" edge="1">
          <mxGeometry relative="1" as="geometry" />
        </mxCell>
        <mxCell id="wulNQaCiWQsxGU0T-WLS-75" style="edgeStyle=orthogonalEdgeStyle;rounded=0;orthogonalLoop=1;jettySize=auto;html=1;exitX=1;exitY=0.5;exitDx=0;exitDy=0;exitPerimeter=0;entryX=1;entryY=0.5;entryDx=0;entryDy=0;entryPerimeter=0;fontSize=8;fontColor=#B3B3B3;endArrow=block;endFill=1;strokeColor=#B3B3B3;" parent="1" source="wulNQaCiWQsxGU0T-WLS-57" target="wulNQaCiWQsxGU0T-WLS-73" edge="1">
          <mxGeometry relative="1" as="geometry">
            <Array as="points">
              <mxPoint x="340" y="1080" />
              <mxPoint x="340" y="1240" />
            </Array>
          </mxGeometry>
        </mxCell>
        <mxCell id="wulNQaCiWQsxGU0T-WLS-77" value="False" style="edgeLabel;html=1;align=center;verticalAlign=middle;resizable=0;points=[];fontSize=8;fontColor=#B3B3B3;" parent="wulNQaCiWQsxGU0T-WLS-75" vertex="1" connectable="0">
          <mxGeometry x="-0.8798" relative="1" as="geometry">
            <mxPoint as="offset" />
          </mxGeometry>
        </mxCell>
        <mxCell id="wulNQaCiWQsxGU0T-WLS-57" value="&lt;font style=&quot;font-size: 8px;&quot; color=&quot;#666666&quot;&gt;At3pm&lt;/font&gt;" style="strokeWidth=1;html=1;shape=mxgraph.flowchart.decision;whiteSpace=wrap;fontSize=8;fillColor=#fff2cc;strokeColor=#d6b656;" parent="1" vertex="1">
          <mxGeometry x="220" y="1040" width="80" height="80" as="geometry" />
        </mxCell>
        <mxCell id="wulNQaCiWQsxGU0T-WLS-63" style="edgeStyle=orthogonalEdgeStyle;rounded=0;orthogonalLoop=1;jettySize=auto;html=1;exitX=0.5;exitY=1;exitDx=0;exitDy=0;entryX=0.5;entryY=0;entryDx=0;entryDy=0;fontSize=8;fontColor=#B3B3B3;endArrow=block;endFill=1;strokeColor=#B3B3B3;" parent="1" source="wulNQaCiWQsxGU0T-WLS-58" target="wulNQaCiWQsxGU0T-WLS-59" edge="1">
          <mxGeometry relative="1" as="geometry" />
        </mxCell>
        <mxCell id="wulNQaCiWQsxGU0T-WLS-58" value="&lt;font color=&quot;#666666&quot; style=&quot;font-size: 8px;&quot;&gt;Use Browser &lt;br&gt;Chrome&lt;/font&gt;" style="rounded=1;whiteSpace=wrap;html=1;absoluteArcSize=1;arcSize=14;strokeWidth=1;fontColor=#000000;fillColor=#d7faf5;strokeColor=#00c2a8;" parent="1" vertex="1">
          <mxGeometry x="220" y="860" width="80" height="40" as="geometry" />
        </mxCell>
        <mxCell id="wulNQaCiWQsxGU0T-WLS-64" style="edgeStyle=orthogonalEdgeStyle;rounded=0;orthogonalLoop=1;jettySize=auto;html=1;exitX=0.5;exitY=1;exitDx=0;exitDy=0;entryX=0.5;entryY=0;entryDx=0;entryDy=0;fontSize=8;fontColor=#B3B3B3;endArrow=block;endFill=1;strokeColor=#B3B3B3;" parent="1" source="wulNQaCiWQsxGU0T-WLS-59" target="wulNQaCiWQsxGU0T-WLS-60" edge="1">
          <mxGeometry relative="1" as="geometry" />
        </mxCell>
        <mxCell id="wulNQaCiWQsxGU0T-WLS-59" value="&lt;font style=&quot;font-size: 8px;&quot; color=&quot;#666666&quot;&gt;Log in&lt;/font&gt;" style="rounded=1;whiteSpace=wrap;html=1;absoluteArcSize=1;arcSize=14;strokeWidth=1;fontColor=#000000;fillColor=#d7faf5;strokeColor=#00c2a8;" parent="1" vertex="1">
          <mxGeometry x="220" y="920" width="80" height="40" as="geometry" />
        </mxCell>
        <mxCell id="wulNQaCiWQsxGU0T-WLS-66" style="edgeStyle=orthogonalEdgeStyle;rounded=0;orthogonalLoop=1;jettySize=auto;html=1;exitX=0.5;exitY=1;exitDx=0;exitDy=0;entryX=0.5;entryY=0;entryDx=0;entryDy=0;entryPerimeter=0;fontSize=8;fontColor=#B3B3B3;endArrow=block;endFill=1;strokeColor=#B3B3B3;" parent="1" source="wulNQaCiWQsxGU0T-WLS-60" target="wulNQaCiWQsxGU0T-WLS-57" edge="1">
          <mxGeometry relative="1" as="geometry" />
        </mxCell>
        <mxCell id="wulNQaCiWQsxGU0T-WLS-60" value="DataTable dtTotalTickets" style="shape=parallelogram;html=1;strokeWidth=1;perimeter=parallelogramPerimeter;whiteSpace=wrap;rounded=1;arcSize=12;size=0.23;fontSize=8;fontColor=#666666;fillColor=#fff0fb;strokeColor=#ff80df;" parent="1" vertex="1">
          <mxGeometry x="220" y="980" width="80" height="40" as="geometry" />
        </mxCell>
        <mxCell id="wulNQaCiWQsxGU0T-WLS-61" value="" style="strokeWidth=1;html=1;shape=mxgraph.flowchart.annotation_2;align=left;labelPosition=right;pointerEvents=1;fontSize=6;fontColor=#666666;strokeColor=#B3B3B3;" parent="1" vertex="1">
          <mxGeometry x="110" y="680" width="30" height="990" as="geometry" />
        </mxCell>
        <mxCell id="wulNQaCiWQsxGU0T-WLS-74" style="edgeStyle=orthogonalEdgeStyle;rounded=0;orthogonalLoop=1;jettySize=auto;html=1;exitX=0.5;exitY=1;exitDx=0;exitDy=0;exitPerimeter=0;entryX=0.5;entryY=0;entryDx=0;entryDy=0;entryPerimeter=0;fontSize=8;fontColor=#B3B3B3;endArrow=block;endFill=1;strokeColor=#B3B3B3;" parent="1" source="wulNQaCiWQsxGU0T-WLS-65" target="wulNQaCiWQsxGU0T-WLS-73" edge="1">
          <mxGeometry relative="1" as="geometry" />
        </mxCell>
        <mxCell id="wulNQaCiWQsxGU0T-WLS-65" value="&lt;font color=&quot;#666666&quot; style=&quot;font-size: 8px;&quot;&gt;At3pm&lt;br&gt;&lt;/font&gt;" style="strokeWidth=1;html=1;shape=mxgraph.flowchart.start_2;whiteSpace=wrap;fillColor=#DAEDF2;strokeColor=#2E75B5;" parent="1" vertex="1">
          <mxGeometry x="235" y="1160" width="50" height="50" as="geometry" />
        </mxCell>
        <mxCell id="wulNQaCiWQsxGU0T-WLS-71" value="&lt;font style=&quot;font-size: 8px;&quot;&gt;True&lt;/font&gt;" style="text;html=1;strokeColor=none;fillColor=default;align=center;verticalAlign=middle;whiteSpace=wrap;rounded=0;dashed=1;labelBorderColor=#FFFFFF;fontSize=8;fontColor=#999999;" parent="1" vertex="1">
          <mxGeometry x="250" y="1130" width="20" height="15" as="geometry" />
        </mxCell>
        <mxCell id="wulNQaCiWQsxGU0T-WLS-72" value="" style="edgeStyle=orthogonalEdgeStyle;rounded=0;orthogonalLoop=1;jettySize=auto;html=1;exitX=0.5;exitY=1;exitDx=0;exitDy=0;exitPerimeter=0;entryX=0.5;entryY=0;entryDx=0;entryDy=0;entryPerimeter=0;fontSize=8;fontColor=#B3B3B3;endArrow=none;endFill=1;strokeColor=#B3B3B3;" parent="1" source="wulNQaCiWQsxGU0T-WLS-57" target="wulNQaCiWQsxGU0T-WLS-71" edge="1">
          <mxGeometry relative="1" as="geometry">
            <mxPoint x="260" y="1120" as="sourcePoint" />
            <mxPoint x="260" y="1160" as="targetPoint" />
          </mxGeometry>
        </mxCell>
        <mxCell id="wulNQaCiWQsxGU0T-WLS-96" style="edgeStyle=orthogonalEdgeStyle;rounded=0;orthogonalLoop=1;jettySize=auto;html=1;exitX=0.5;exitY=1;exitDx=0;exitDy=0;exitPerimeter=0;entryX=0.5;entryY=0;entryDx=0;entryDy=0;entryPerimeter=0;fontSize=8;fontColor=#B3B3B3;endArrow=block;endFill=1;strokeColor=#B3B3B3;" parent="1" source="wulNQaCiWQsxGU0T-WLS-73" target="wulNQaCiWQsxGU0T-WLS-81" edge="1">
          <mxGeometry relative="1" as="geometry" />
        </mxCell>
        <mxCell id="wulNQaCiWQsxGU0T-WLS-73" value="" style="strokeWidth=2;html=1;shape=mxgraph.flowchart.start_2;whiteSpace=wrap;fontSize=8;fontColor=#666666;fillColor=#B3B3B3;strokeColor=none;" parent="1" vertex="1">
          <mxGeometry x="250" y="1230" width="20" height="20" as="geometry" />
        </mxCell>
        <mxCell id="wulNQaCiWQsxGU0T-WLS-78" style="edgeStyle=orthogonalEdgeStyle;rounded=0;orthogonalLoop=1;jettySize=auto;html=1;exitX=0.5;exitY=1;exitDx=0;exitDy=0;exitPerimeter=0;entryX=0.5;entryY=0;entryDx=0;entryDy=0;entryPerimeter=0;fontSize=8;fontColor=#B3B3B3;endArrow=block;endFill=1;strokeColor=#B3B3B3;startArrow=none;" parent="1" source="wulNQaCiWQsxGU0T-WLS-84" target="wulNQaCiWQsxGU0T-WLS-83" edge="1">
          <mxGeometry relative="1" as="geometry" />
        </mxCell>
        <mxCell id="wulNQaCiWQsxGU0T-WLS-79" style="edgeStyle=orthogonalEdgeStyle;rounded=0;orthogonalLoop=1;jettySize=auto;html=1;exitX=1;exitY=0.5;exitDx=0;exitDy=0;exitPerimeter=0;entryX=1;entryY=0.5;entryDx=0;entryDy=0;entryPerimeter=0;fontSize=8;fontColor=#B3B3B3;endArrow=block;endFill=1;strokeColor=#B3B3B3;" parent="1" source="wulNQaCiWQsxGU0T-WLS-81" target="wulNQaCiWQsxGU0T-WLS-86" edge="1">
          <mxGeometry relative="1" as="geometry">
            <Array as="points">
              <mxPoint x="340" y="1310" />
              <mxPoint x="340" y="1470" />
            </Array>
          </mxGeometry>
        </mxCell>
        <mxCell id="wulNQaCiWQsxGU0T-WLS-80" value="False" style="edgeLabel;html=1;align=center;verticalAlign=middle;resizable=0;points=[];fontSize=8;fontColor=#B3B3B3;" parent="wulNQaCiWQsxGU0T-WLS-79" vertex="1" connectable="0">
          <mxGeometry x="-0.8798" relative="1" as="geometry">
            <mxPoint as="offset" />
          </mxGeometry>
        </mxCell>
        <mxCell id="wulNQaCiWQsxGU0T-WLS-81" value="&lt;font style=&quot;font-size: 8px;&quot; color=&quot;#666666&quot;&gt;At6pm&lt;/font&gt;" style="strokeWidth=1;html=1;shape=mxgraph.flowchart.decision;whiteSpace=wrap;fontSize=8;fillColor=#fff2cc;strokeColor=#d6b656;" parent="1" vertex="1">
          <mxGeometry x="220" y="1270" width="80" height="80" as="geometry" />
        </mxCell>
        <mxCell id="wulNQaCiWQsxGU0T-WLS-82" style="edgeStyle=orthogonalEdgeStyle;rounded=0;orthogonalLoop=1;jettySize=auto;html=1;exitX=0.5;exitY=1;exitDx=0;exitDy=0;exitPerimeter=0;entryX=0.5;entryY=0;entryDx=0;entryDy=0;entryPerimeter=0;fontSize=8;fontColor=#B3B3B3;endArrow=block;endFill=1;strokeColor=#B3B3B3;" parent="1" source="wulNQaCiWQsxGU0T-WLS-83" target="wulNQaCiWQsxGU0T-WLS-86" edge="1">
          <mxGeometry relative="1" as="geometry" />
        </mxCell>
        <mxCell id="wulNQaCiWQsxGU0T-WLS-83" value="&lt;font color=&quot;#666666&quot; style=&quot;font-size: 8px;&quot;&gt;At6pm&lt;br&gt;&lt;/font&gt;" style="strokeWidth=1;html=1;shape=mxgraph.flowchart.start_2;whiteSpace=wrap;fillColor=#DAEDF2;strokeColor=#2E75B5;" parent="1" vertex="1">
          <mxGeometry x="235" y="1390" width="50" height="50" as="geometry" />
        </mxCell>
        <mxCell id="wulNQaCiWQsxGU0T-WLS-84" value="&lt;font style=&quot;font-size: 8px;&quot;&gt;True&lt;/font&gt;" style="text;html=1;strokeColor=none;fillColor=default;align=center;verticalAlign=middle;whiteSpace=wrap;rounded=0;dashed=1;labelBorderColor=#FFFFFF;fontSize=8;fontColor=#999999;" parent="1" vertex="1">
          <mxGeometry x="250" y="1360" width="20" height="15" as="geometry" />
        </mxCell>
        <mxCell id="wulNQaCiWQsxGU0T-WLS-85" value="" style="edgeStyle=orthogonalEdgeStyle;rounded=0;orthogonalLoop=1;jettySize=auto;html=1;exitX=0.5;exitY=1;exitDx=0;exitDy=0;exitPerimeter=0;entryX=0.5;entryY=0;entryDx=0;entryDy=0;entryPerimeter=0;fontSize=8;fontColor=#B3B3B3;endArrow=none;endFill=1;strokeColor=#B3B3B3;" parent="1" source="wulNQaCiWQsxGU0T-WLS-81" target="wulNQaCiWQsxGU0T-WLS-84" edge="1">
          <mxGeometry relative="1" as="geometry">
            <mxPoint x="260" y="1350" as="sourcePoint" />
            <mxPoint x="260" y="1390" as="targetPoint" />
          </mxGeometry>
        </mxCell>
        <mxCell id="wulNQaCiWQsxGU0T-WLS-97" style="edgeStyle=orthogonalEdgeStyle;rounded=0;orthogonalLoop=1;jettySize=auto;html=1;exitX=0.5;exitY=1;exitDx=0;exitDy=0;exitPerimeter=0;entryX=0.5;entryY=0;entryDx=0;entryDy=0;entryPerimeter=0;fontSize=8;fontColor=#B3B3B3;endArrow=block;endFill=1;strokeColor=#B3B3B3;" parent="1" source="wulNQaCiWQsxGU0T-WLS-86" target="wulNQaCiWQsxGU0T-WLS-90" edge="1">
          <mxGeometry relative="1" as="geometry" />
        </mxCell>
        <mxCell id="wulNQaCiWQsxGU0T-WLS-86" value="" style="strokeWidth=2;html=1;shape=mxgraph.flowchart.start_2;whiteSpace=wrap;fontSize=8;fontColor=#666666;fillColor=#B3B3B3;strokeColor=none;" parent="1" vertex="1">
          <mxGeometry x="250" y="1460" width="20" height="20" as="geometry" />
        </mxCell>
        <mxCell id="wulNQaCiWQsxGU0T-WLS-87" style="edgeStyle=orthogonalEdgeStyle;rounded=0;orthogonalLoop=1;jettySize=auto;html=1;exitX=0.5;exitY=1;exitDx=0;exitDy=0;exitPerimeter=0;entryX=0.5;entryY=0;entryDx=0;entryDy=0;entryPerimeter=0;fontSize=8;fontColor=#B3B3B3;endArrow=block;endFill=1;strokeColor=#B3B3B3;startArrow=none;" parent="1" source="wulNQaCiWQsxGU0T-WLS-93" target="wulNQaCiWQsxGU0T-WLS-92" edge="1">
          <mxGeometry relative="1" as="geometry" />
        </mxCell>
        <mxCell id="wulNQaCiWQsxGU0T-WLS-88" style="edgeStyle=orthogonalEdgeStyle;rounded=0;orthogonalLoop=1;jettySize=auto;html=1;exitX=1;exitY=0.5;exitDx=0;exitDy=0;exitPerimeter=0;entryX=1;entryY=0.5;entryDx=0;entryDy=0;entryPerimeter=0;fontSize=8;fontColor=#B3B3B3;endArrow=block;endFill=1;strokeColor=#B3B3B3;" parent="1" source="wulNQaCiWQsxGU0T-WLS-90" target="wulNQaCiWQsxGU0T-WLS-95" edge="1">
          <mxGeometry relative="1" as="geometry">
            <Array as="points">
              <mxPoint x="340" y="1540" />
              <mxPoint x="340" y="1700" />
            </Array>
          </mxGeometry>
        </mxCell>
        <mxCell id="wulNQaCiWQsxGU0T-WLS-89" value="False" style="edgeLabel;html=1;align=center;verticalAlign=middle;resizable=0;points=[];fontSize=8;fontColor=#B3B3B3;" parent="wulNQaCiWQsxGU0T-WLS-88" vertex="1" connectable="0">
          <mxGeometry x="-0.8798" relative="1" as="geometry">
            <mxPoint as="offset" />
          </mxGeometry>
        </mxCell>
        <mxCell id="wulNQaCiWQsxGU0T-WLS-90" value="&lt;font style=&quot;font-size: 8px;&quot; color=&quot;#666666&quot;&gt;At7pm&lt;/font&gt;" style="strokeWidth=1;html=1;shape=mxgraph.flowchart.decision;whiteSpace=wrap;fontSize=8;fillColor=#fff2cc;strokeColor=#d6b656;" parent="1" vertex="1">
          <mxGeometry x="220" y="1500" width="80" height="80" as="geometry" />
        </mxCell>
        <mxCell id="wulNQaCiWQsxGU0T-WLS-91" style="edgeStyle=orthogonalEdgeStyle;rounded=0;orthogonalLoop=1;jettySize=auto;html=1;exitX=0.5;exitY=1;exitDx=0;exitDy=0;exitPerimeter=0;entryX=0.5;entryY=0;entryDx=0;entryDy=0;entryPerimeter=0;fontSize=8;fontColor=#B3B3B3;endArrow=block;endFill=1;strokeColor=#B3B3B3;" parent="1" source="wulNQaCiWQsxGU0T-WLS-92" target="wulNQaCiWQsxGU0T-WLS-95" edge="1">
          <mxGeometry relative="1" as="geometry" />
        </mxCell>
        <mxCell id="wulNQaCiWQsxGU0T-WLS-92" value="&lt;font color=&quot;#666666&quot; style=&quot;font-size: 8px;&quot;&gt;At7pm&lt;br&gt;&lt;/font&gt;" style="strokeWidth=1;html=1;shape=mxgraph.flowchart.start_2;whiteSpace=wrap;fillColor=#DAEDF2;strokeColor=#2E75B5;" parent="1" vertex="1">
          <mxGeometry x="235" y="1620" width="50" height="50" as="geometry" />
        </mxCell>
        <mxCell id="wulNQaCiWQsxGU0T-WLS-93" value="&lt;font style=&quot;font-size: 8px;&quot;&gt;True&lt;/font&gt;" style="text;html=1;strokeColor=none;fillColor=default;align=center;verticalAlign=middle;whiteSpace=wrap;rounded=0;dashed=1;labelBorderColor=#FFFFFF;fontSize=8;fontColor=#999999;" parent="1" vertex="1">
          <mxGeometry x="250" y="1590" width="20" height="15" as="geometry" />
        </mxCell>
        <mxCell id="wulNQaCiWQsxGU0T-WLS-94" value="" style="edgeStyle=orthogonalEdgeStyle;rounded=0;orthogonalLoop=1;jettySize=auto;html=1;exitX=0.5;exitY=1;exitDx=0;exitDy=0;exitPerimeter=0;entryX=0.5;entryY=0;entryDx=0;entryDy=0;entryPerimeter=0;fontSize=8;fontColor=#B3B3B3;endArrow=none;endFill=1;strokeColor=#B3B3B3;" parent="1" source="wulNQaCiWQsxGU0T-WLS-90" target="wulNQaCiWQsxGU0T-WLS-93" edge="1">
          <mxGeometry relative="1" as="geometry">
            <mxPoint x="260" y="1580" as="sourcePoint" />
            <mxPoint x="260" y="1620" as="targetPoint" />
          </mxGeometry>
        </mxCell>
        <mxCell id="wulNQaCiWQsxGU0T-WLS-103" style="edgeStyle=orthogonalEdgeStyle;rounded=0;orthogonalLoop=1;jettySize=auto;html=1;exitX=0.5;exitY=1;exitDx=0;exitDy=0;exitPerimeter=0;entryX=0.5;entryY=0;entryDx=0;entryDy=0;entryPerimeter=0;fontSize=8;fontColor=#B3B3B3;endArrow=block;endFill=1;strokeColor=#B3B3B3;" parent="1" source="wulNQaCiWQsxGU0T-WLS-95" target="wulNQaCiWQsxGU0T-WLS-99" edge="1">
          <mxGeometry relative="1" as="geometry" />
        </mxCell>
        <mxCell id="wulNQaCiWQsxGU0T-WLS-95" value="" style="strokeWidth=2;html=1;shape=mxgraph.flowchart.start_2;whiteSpace=wrap;fontSize=8;fontColor=#666666;fillColor=#B3B3B3;strokeColor=none;" parent="1" vertex="1">
          <mxGeometry x="250" y="1690" width="20" height="20" as="geometry" />
        </mxCell>
        <mxCell id="wulNQaCiWQsxGU0T-WLS-98" value="Sequence: StoppingTickets" style="text;html=1;strokeColor=none;fillColor=none;align=right;verticalAlign=middle;whiteSpace=wrap;rounded=0;fontSize=6;fontColor=#666666;" parent="1" vertex="1">
          <mxGeometry x="50" y="1160" width="60" height="30" as="geometry" />
        </mxCell>
        <mxCell id="wulNQaCiWQsxGU0T-WLS-104" style="edgeStyle=orthogonalEdgeStyle;rounded=0;orthogonalLoop=1;jettySize=auto;html=1;exitX=0.5;exitY=1;exitDx=0;exitDy=0;exitPerimeter=0;entryX=0.5;entryY=0;entryDx=0;entryDy=0;entryPerimeter=0;fontSize=8;fontColor=#B3B3B3;endArrow=block;endFill=1;strokeColor=#B3B3B3;" parent="1" source="wulNQaCiWQsxGU0T-WLS-99" target="wulNQaCiWQsxGU0T-WLS-15" edge="1">
          <mxGeometry relative="1" as="geometry" />
        </mxCell>
        <mxCell id="wulNQaCiWQsxGU0T-WLS-99" value="" style="strokeWidth=2;html=1;shape=mxgraph.flowchart.start_2;whiteSpace=wrap;fontSize=8;fontColor=#666666;fillColor=#B3B3B3;strokeColor=none;" parent="1" vertex="1">
          <mxGeometry x="250" y="1730" width="20" height="20" as="geometry" />
        </mxCell>
        <mxCell id="wulNQaCiWQsxGU0T-WLS-110" style="edgeStyle=orthogonalEdgeStyle;rounded=0;orthogonalLoop=1;jettySize=auto;html=1;exitX=0.5;exitY=1;exitDx=0;exitDy=0;exitPerimeter=0;entryX=0.5;entryY=0;entryDx=0;entryDy=0;entryPerimeter=0;fontSize=8;fontColor=#B3B3B3;endArrow=block;endFill=1;strokeColor=#B3B3B3;" parent="1" source="wulNQaCiWQsxGU0T-WLS-105" target="wulNQaCiWQsxGU0T-WLS-109" edge="1">
          <mxGeometry relative="1" as="geometry" />
        </mxCell>
        <mxCell id="wulNQaCiWQsxGU0T-WLS-105" value="&lt;font color=&quot;#666666&quot; style=&quot;font-size: 8px;&quot;&gt;Start&lt;br&gt;At3pm&lt;br&gt;&lt;/font&gt;" style="strokeWidth=1;html=1;shape=mxgraph.flowchart.start_2;whiteSpace=wrap;fillColor=#DAEDF2;strokeColor=#2E75B5;" parent="1" vertex="1">
          <mxGeometry x="635" y="80" width="50" height="50" as="geometry" />
        </mxCell>
        <mxCell id="wulNQaCiWQsxGU0T-WLS-107" value="&lt;font color=&quot;#b3b3b3&quot; style=&quot;font-size: 8px;&quot;&gt;False&lt;/font&gt;" style="text;html=1;strokeColor=none;fillColor=default;align=center;verticalAlign=middle;whiteSpace=wrap;rounded=0;dashed=1;labelBorderColor=#FFFFFF;fontSize=8;fontColor=#999999;" parent="1" vertex="1">
          <mxGeometry x="250" y="827" width="20" height="15" as="geometry" />
        </mxCell>
        <mxCell id="wulNQaCiWQsxGU0T-WLS-108" value="" style="edgeStyle=orthogonalEdgeStyle;rounded=0;orthogonalLoop=1;jettySize=auto;html=1;exitX=0.5;exitY=1;exitDx=0;exitDy=0;exitPerimeter=0;entryX=0.5;entryY=0;entryDx=0;entryDy=0;fontSize=8;fontColor=#B3B3B3;endArrow=none;endFill=1;strokeColor=#B3B3B3;" parent="1" source="wulNQaCiWQsxGU0T-WLS-55" target="wulNQaCiWQsxGU0T-WLS-107" edge="1">
          <mxGeometry relative="1" as="geometry">
            <mxPoint x="260" y="820" as="sourcePoint" />
            <mxPoint x="260" y="860" as="targetPoint" />
          </mxGeometry>
        </mxCell>
        <mxCell id="wulNQaCiWQsxGU0T-WLS-112" style="edgeStyle=orthogonalEdgeStyle;rounded=0;orthogonalLoop=1;jettySize=auto;html=1;exitX=0.5;exitY=1;exitDx=0;exitDy=0;exitPerimeter=0;entryX=0.5;entryY=0;entryDx=0;entryDy=0;entryPerimeter=0;fontSize=8;fontColor=#B3B3B3;endArrow=block;endFill=1;strokeColor=#B3B3B3;" parent="1" source="wulNQaCiWQsxGU0T-WLS-109" target="wulNQaCiWQsxGU0T-WLS-111" edge="1">
          <mxGeometry relative="1" as="geometry" />
        </mxCell>
        <mxCell id="wulNQaCiWQsxGU0T-WLS-109" value="&lt;font color=&quot;#666666&quot;&gt;Filter&lt;br&gt;dtAt3pmINC&lt;br&gt;&lt;/font&gt;" style="strokeWidth=1;html=1;shape=mxgraph.flowchart.merge_or_storage;whiteSpace=wrap;fontSize=8;fillColor=#ffe6cc;strokeColor=#d79b00;" parent="1" vertex="1">
          <mxGeometry x="620" y="150" width="80" height="50" as="geometry" />
        </mxCell>
        <mxCell id="wulNQaCiWQsxGU0T-WLS-125" style="edgeStyle=orthogonalEdgeStyle;rounded=0;orthogonalLoop=1;jettySize=auto;html=1;exitX=0.5;exitY=1;exitDx=0;exitDy=0;exitPerimeter=0;entryX=0.5;entryY=0;entryDx=0;entryDy=0;fontSize=8;fontColor=#B3B3B3;endArrow=block;endFill=1;strokeColor=#B3B3B3;" parent="1" source="wulNQaCiWQsxGU0T-WLS-111" target="wulNQaCiWQsxGU0T-WLS-113" edge="1">
          <mxGeometry relative="1" as="geometry" />
        </mxCell>
        <mxCell id="wulNQaCiWQsxGU0T-WLS-111" value="&lt;font color=&quot;#666666&quot;&gt;Filter&lt;br&gt;dtAt3pmINC&lt;br&gt;&lt;/font&gt;" style="strokeWidth=1;html=1;shape=mxgraph.flowchart.merge_or_storage;whiteSpace=wrap;fontSize=8;fillColor=#ffe6cc;strokeColor=#d79b00;" parent="1" vertex="1">
          <mxGeometry x="620" y="220" width="80" height="50" as="geometry" />
        </mxCell>
        <mxCell id="wulNQaCiWQsxGU0T-WLS-138" style="edgeStyle=orthogonalEdgeStyle;rounded=0;orthogonalLoop=1;jettySize=auto;html=1;exitX=0.5;exitY=1;exitDx=0;exitDy=0;entryX=0.5;entryY=0;entryDx=0;entryDy=0;entryPerimeter=0;fontSize=8;fontColor=#B3B3B3;endArrow=block;endFill=1;strokeColor=#B3B3B3;" parent="1" source="wulNQaCiWQsxGU0T-WLS-113" target="wulNQaCiWQsxGU0T-WLS-131" edge="1">
          <mxGeometry relative="1" as="geometry" />
        </mxCell>
        <mxCell id="wulNQaCiWQsxGU0T-WLS-113" value="For each Row inÂ dtAt3pmINC" style="swimlane;fontSize=8;strokeColor=#B3B3B3;strokeWidth=1;fillColor=#f5f5f5;fontColor=#666666;" parent="1" vertex="1">
          <mxGeometry x="560" y="290" width="200" height="180" as="geometry">
            <mxRectangle x="380" y="300" width="120" height="23" as="alternateBounds" />
          </mxGeometry>
        </mxCell>
        <mxCell id="wulNQaCiWQsxGU0T-WLS-127" style="edgeStyle=orthogonalEdgeStyle;rounded=0;orthogonalLoop=1;jettySize=auto;html=1;exitX=0.5;exitY=1;exitDx=0;exitDy=0;entryX=0.5;entryY=0;entryDx=0;entryDy=0;entryPerimeter=0;fontSize=8;fontColor=#B3B3B3;endArrow=block;endFill=1;strokeColor=#B3B3B3;" parent="wulNQaCiWQsxGU0T-WLS-113" source="wulNQaCiWQsxGU0T-WLS-115" target="wulNQaCiWQsxGU0T-WLS-126" edge="1">
          <mxGeometry relative="1" as="geometry" />
        </mxCell>
        <mxCell id="wulNQaCiWQsxGU0T-WLS-115" value="&lt;font color=&quot;#666666&quot;&gt;&lt;span style=&quot;font-size: 8px;&quot;&gt;Assign: Ticket&lt;/span&gt;&lt;/font&gt;" style="rounded=1;whiteSpace=wrap;html=1;absoluteArcSize=1;arcSize=14;strokeWidth=1;fontColor=#000000;fillColor=#d7faf5;strokeColor=#00c2a8;" parent="wulNQaCiWQsxGU0T-WLS-113" vertex="1">
          <mxGeometry x="60" y="45" width="80" height="40" as="geometry" />
        </mxCell>
        <mxCell id="wulNQaCiWQsxGU0T-WLS-126" value="&lt;font color=&quot;#666666&quot; style=&quot;font-size: 8px;&quot;&gt;INC&lt;br&gt;&lt;/font&gt;" style="strokeWidth=1;html=1;shape=mxgraph.flowchart.start_2;whiteSpace=wrap;fillColor=#DAEDF2;strokeColor=#2E75B5;" parent="wulNQaCiWQsxGU0T-WLS-113" vertex="1">
          <mxGeometry x="75" y="110" width="50" height="50" as="geometry" />
        </mxCell>
        <mxCell id="wulNQaCiWQsxGU0T-WLS-128" value="&lt;font color=&quot;#666666&quot; style=&quot;font-size: 8px;&quot;&gt;End&lt;br&gt;At3pm&lt;br&gt;&lt;/font&gt;" style="strokeWidth=1;html=1;shape=mxgraph.flowchart.start_2;whiteSpace=wrap;fillColor=#DAEDF2;strokeColor=#2E75B5;" parent="1" vertex="1">
          <mxGeometry x="635" y="830" width="50" height="50" as="geometry" />
        </mxCell>
        <mxCell id="wulNQaCiWQsxGU0T-WLS-130" style="edgeStyle=orthogonalEdgeStyle;rounded=0;orthogonalLoop=1;jettySize=auto;html=1;exitX=0.5;exitY=1;exitDx=0;exitDy=0;exitPerimeter=0;entryX=0.5;entryY=0;entryDx=0;entryDy=0;entryPerimeter=0;fontSize=8;fontColor=#B3B3B3;endArrow=block;endFill=1;strokeColor=#B3B3B3;" parent="1" source="wulNQaCiWQsxGU0T-WLS-131" target="wulNQaCiWQsxGU0T-WLS-133" edge="1">
          <mxGeometry relative="1" as="geometry" />
        </mxCell>
        <mxCell id="wulNQaCiWQsxGU0T-WLS-131" value="&lt;font color=&quot;#666666&quot;&gt;Filter&lt;br&gt;dtAt3pmWO&lt;br&gt;&lt;/font&gt;" style="strokeWidth=1;html=1;shape=mxgraph.flowchart.merge_or_storage;whiteSpace=wrap;fontSize=8;fillColor=#ffe6cc;strokeColor=#d79b00;" parent="1" vertex="1">
          <mxGeometry x="620" y="490" width="80" height="50" as="geometry" />
        </mxCell>
        <mxCell id="wulNQaCiWQsxGU0T-WLS-132" style="edgeStyle=orthogonalEdgeStyle;rounded=0;orthogonalLoop=1;jettySize=auto;html=1;exitX=0.5;exitY=1;exitDx=0;exitDy=0;exitPerimeter=0;entryX=0.5;entryY=0;entryDx=0;entryDy=0;fontSize=8;fontColor=#B3B3B3;endArrow=block;endFill=1;strokeColor=#B3B3B3;" parent="1" source="wulNQaCiWQsxGU0T-WLS-133" target="wulNQaCiWQsxGU0T-WLS-134" edge="1">
          <mxGeometry relative="1" as="geometry" />
        </mxCell>
        <mxCell id="wulNQaCiWQsxGU0T-WLS-133" value="&lt;font color=&quot;#666666&quot;&gt;Filter&lt;br&gt;dtAt3pmWO&lt;br&gt;&lt;/font&gt;" style="strokeWidth=1;html=1;shape=mxgraph.flowchart.merge_or_storage;whiteSpace=wrap;fontSize=8;fillColor=#ffe6cc;strokeColor=#d79b00;" parent="1" vertex="1">
          <mxGeometry x="620" y="560" width="80" height="50" as="geometry" />
        </mxCell>
        <mxCell id="wulNQaCiWQsxGU0T-WLS-139" style="edgeStyle=orthogonalEdgeStyle;rounded=0;orthogonalLoop=1;jettySize=auto;html=1;exitX=0.5;exitY=1;exitDx=0;exitDy=0;entryX=0.5;entryY=0;entryDx=0;entryDy=0;entryPerimeter=0;fontSize=8;fontColor=#B3B3B3;endArrow=block;endFill=1;strokeColor=#B3B3B3;" parent="1" source="wulNQaCiWQsxGU0T-WLS-134" target="wulNQaCiWQsxGU0T-WLS-128" edge="1">
          <mxGeometry relative="1" as="geometry" />
        </mxCell>
        <mxCell id="wulNQaCiWQsxGU0T-WLS-134" value="For each Row inÂ dtAt3pmWO" style="swimlane;fontSize=8;strokeColor=#B3B3B3;strokeWidth=1;fillColor=#f5f5f5;fontColor=#666666;" parent="1" vertex="1">
          <mxGeometry x="560" y="630" width="200" height="180" as="geometry">
            <mxRectangle x="380" y="300" width="120" height="23" as="alternateBounds" />
          </mxGeometry>
        </mxCell>
        <mxCell id="wulNQaCiWQsxGU0T-WLS-135" style="edgeStyle=orthogonalEdgeStyle;rounded=0;orthogonalLoop=1;jettySize=auto;html=1;exitX=0.5;exitY=1;exitDx=0;exitDy=0;entryX=0.5;entryY=0;entryDx=0;entryDy=0;entryPerimeter=0;fontSize=8;fontColor=#B3B3B3;endArrow=block;endFill=1;strokeColor=#B3B3B3;" parent="wulNQaCiWQsxGU0T-WLS-134" source="wulNQaCiWQsxGU0T-WLS-136" target="wulNQaCiWQsxGU0T-WLS-137" edge="1">
          <mxGeometry relative="1" as="geometry" />
        </mxCell>
        <mxCell id="wulNQaCiWQsxGU0T-WLS-136" value="&lt;font color=&quot;#666666&quot;&gt;&lt;span style=&quot;font-size: 8px;&quot;&gt;Assign: Ticket&lt;/span&gt;&lt;/font&gt;" style="rounded=1;whiteSpace=wrap;html=1;absoluteArcSize=1;arcSize=14;strokeWidth=1;fontColor=#000000;fillColor=#d7faf5;strokeColor=#00c2a8;" parent="wulNQaCiWQsxGU0T-WLS-134" vertex="1">
          <mxGeometry x="60" y="45" width="80" height="40" as="geometry" />
        </mxCell>
        <mxCell id="wulNQaCiWQsxGU0T-WLS-137" value="&lt;font color=&quot;#666666&quot; style=&quot;font-size: 8px;&quot;&gt;WO&lt;br&gt;&lt;/font&gt;" style="strokeWidth=1;html=1;shape=mxgraph.flowchart.start_2;whiteSpace=wrap;fillColor=#DAEDF2;strokeColor=#2E75B5;" parent="wulNQaCiWQsxGU0T-WLS-134" vertex="1">
          <mxGeometry x="75" y="110" width="50" height="50" as="geometry" />
        </mxCell>
        <mxCell id="wulNQaCiWQsxGU0T-WLS-140" value="" style="strokeWidth=1;html=1;shape=mxgraph.flowchart.annotation_2;align=left;labelPosition=right;pointerEvents=1;fontSize=6;fontColor=#666666;strokeColor=#B3B3B3;" parent="1" vertex="1">
          <mxGeometry x="510" y="150" width="30" height="320" as="geometry" />
        </mxCell>
        <mxCell id="wulNQaCiWQsxGU0T-WLS-141" value="Sequence: At3pmINC" style="text;html=1;strokeColor=none;fillColor=none;align=right;verticalAlign=middle;whiteSpace=wrap;rounded=0;fontSize=6;fontColor=#666666;" parent="1" vertex="1">
          <mxGeometry x="450" y="295" width="60" height="30" as="geometry" />
        </mxCell>
        <mxCell id="wulNQaCiWQsxGU0T-WLS-142" value="" style="strokeWidth=1;html=1;shape=mxgraph.flowchart.annotation_2;align=left;labelPosition=right;pointerEvents=1;fontSize=6;fontColor=#666666;strokeColor=#B3B3B3;" parent="1" vertex="1">
          <mxGeometry x="510" y="490" width="30" height="320" as="geometry" />
        </mxCell>
        <mxCell id="wulNQaCiWQsxGU0T-WLS-143" value="Sequence: At3pmWO" style="text;html=1;strokeColor=none;fillColor=none;align=right;verticalAlign=middle;whiteSpace=wrap;rounded=0;fontSize=6;fontColor=#666666;" parent="1" vertex="1">
          <mxGeometry x="450" y="635" width="60" height="30" as="geometry" />
        </mxCell>
        <mxCell id="wulNQaCiWQsxGU0T-WLS-169" style="edgeStyle=orthogonalEdgeStyle;rounded=0;orthogonalLoop=1;jettySize=auto;html=1;exitX=0.5;exitY=1;exitDx=0;exitDy=0;exitPerimeter=0;entryX=0.5;entryY=0;entryDx=0;entryDy=0;entryPerimeter=0;fontSize=8;fontColor=#B3B3B3;endArrow=block;endFill=1;strokeColor=#B3B3B3;" parent="1" source="wulNQaCiWQsxGU0T-WLS-145" target="wulNQaCiWQsxGU0T-WLS-149" edge="1">
          <mxGeometry relative="1" as="geometry" />
        </mxCell>
        <mxCell id="wulNQaCiWQsxGU0T-WLS-145" value="&lt;font color=&quot;#666666&quot; style=&quot;font-size: 8px;&quot;&gt;Start&lt;br&gt;At6pm&lt;br&gt;&lt;/font&gt;" style="strokeWidth=1;html=1;shape=mxgraph.flowchart.start_2;whiteSpace=wrap;fillColor=#DAEDF2;strokeColor=#2E75B5;" parent="1" vertex="1">
          <mxGeometry x="1035" y="80" width="50" height="50" as="geometry" />
        </mxCell>
        <mxCell id="wulNQaCiWQsxGU0T-WLS-148" style="edgeStyle=orthogonalEdgeStyle;rounded=0;orthogonalLoop=1;jettySize=auto;html=1;exitX=0.5;exitY=1;exitDx=0;exitDy=0;exitPerimeter=0;entryX=0.5;entryY=0;entryDx=0;entryDy=0;fontSize=8;fontColor=#B3B3B3;endArrow=block;endFill=1;strokeColor=#B3B3B3;" parent="1" source="wulNQaCiWQsxGU0T-WLS-149" target="wulNQaCiWQsxGU0T-WLS-151" edge="1">
          <mxGeometry relative="1" as="geometry" />
        </mxCell>
        <mxCell id="wulNQaCiWQsxGU0T-WLS-149" value="&lt;font color=&quot;#666666&quot;&gt;Filter&lt;br&gt;dtAt6pmINC&lt;br&gt;&lt;/font&gt;" style="strokeWidth=1;html=1;shape=mxgraph.flowchart.merge_or_storage;whiteSpace=wrap;fontSize=8;fillColor=#ffe6cc;strokeColor=#d79b00;" parent="1" vertex="1">
          <mxGeometry x="1020" y="150" width="80" height="50" as="geometry" />
        </mxCell>
        <mxCell id="wulNQaCiWQsxGU0T-WLS-170" style="edgeStyle=orthogonalEdgeStyle;rounded=0;orthogonalLoop=1;jettySize=auto;html=1;exitX=0.5;exitY=1;exitDx=0;exitDy=0;entryX=0.5;entryY=0;entryDx=0;entryDy=0;entryPerimeter=0;fontSize=8;fontColor=#B3B3B3;endArrow=block;endFill=1;strokeColor=#B3B3B3;" parent="1" source="wulNQaCiWQsxGU0T-WLS-151" target="wulNQaCiWQsxGU0T-WLS-159" edge="1">
          <mxGeometry relative="1" as="geometry" />
        </mxCell>
        <mxCell id="wulNQaCiWQsxGU0T-WLS-151" value="For each Row inÂ dtAt6pmINC" style="swimlane;fontSize=8;strokeColor=#B3B3B3;strokeWidth=1;fillColor=#f5f5f5;fontColor=#666666;" parent="1" vertex="1">
          <mxGeometry x="960" y="220" width="200" height="180" as="geometry">
            <mxRectangle x="380" y="300" width="120" height="23" as="alternateBounds" />
          </mxGeometry>
        </mxCell>
        <mxCell id="wulNQaCiWQsxGU0T-WLS-152" style="edgeStyle=orthogonalEdgeStyle;rounded=0;orthogonalLoop=1;jettySize=auto;html=1;exitX=0.5;exitY=1;exitDx=0;exitDy=0;entryX=0.5;entryY=0;entryDx=0;entryDy=0;entryPerimeter=0;fontSize=8;fontColor=#B3B3B3;endArrow=block;endFill=1;strokeColor=#B3B3B3;" parent="wulNQaCiWQsxGU0T-WLS-151" source="wulNQaCiWQsxGU0T-WLS-153" target="wulNQaCiWQsxGU0T-WLS-154" edge="1">
          <mxGeometry relative="1" as="geometry" />
        </mxCell>
        <mxCell id="wulNQaCiWQsxGU0T-WLS-153" value="&lt;font color=&quot;#666666&quot;&gt;&lt;span style=&quot;font-size: 8px;&quot;&gt;Assign: Ticket&lt;/span&gt;&lt;/font&gt;" style="rounded=1;whiteSpace=wrap;html=1;absoluteArcSize=1;arcSize=14;strokeWidth=1;fontColor=#000000;fillColor=#d7faf5;strokeColor=#00c2a8;" parent="wulNQaCiWQsxGU0T-WLS-151" vertex="1">
          <mxGeometry x="60" y="45" width="80" height="40" as="geometry" />
        </mxCell>
        <mxCell id="wulNQaCiWQsxGU0T-WLS-154" value="&lt;font color=&quot;#666666&quot; style=&quot;font-size: 8px;&quot;&gt;INC&lt;br&gt;&lt;/font&gt;" style="strokeWidth=1;html=1;shape=mxgraph.flowchart.start_2;whiteSpace=wrap;fillColor=#DAEDF2;strokeColor=#2E75B5;" parent="wulNQaCiWQsxGU0T-WLS-151" vertex="1">
          <mxGeometry x="75" y="110" width="50" height="50" as="geometry" />
        </mxCell>
        <mxCell id="wulNQaCiWQsxGU0T-WLS-155" value="&lt;font color=&quot;#666666&quot; style=&quot;font-size: 8px;&quot;&gt;End&lt;br&gt;At6pm&lt;br&gt;&lt;/font&gt;" style="strokeWidth=1;html=1;shape=mxgraph.flowchart.start_2;whiteSpace=wrap;fillColor=#DAEDF2;strokeColor=#2E75B5;" parent="1" vertex="1">
          <mxGeometry x="1035" y="690" width="50" height="50" as="geometry" />
        </mxCell>
        <mxCell id="wulNQaCiWQsxGU0T-WLS-158" style="edgeStyle=orthogonalEdgeStyle;rounded=0;orthogonalLoop=1;jettySize=auto;html=1;exitX=0.5;exitY=1;exitDx=0;exitDy=0;exitPerimeter=0;entryX=0.5;entryY=0;entryDx=0;entryDy=0;fontSize=8;fontColor=#B3B3B3;endArrow=block;endFill=1;strokeColor=#B3B3B3;" parent="1" source="wulNQaCiWQsxGU0T-WLS-159" target="wulNQaCiWQsxGU0T-WLS-161" edge="1">
          <mxGeometry relative="1" as="geometry" />
        </mxCell>
        <mxCell id="wulNQaCiWQsxGU0T-WLS-159" value="&lt;font color=&quot;#666666&quot;&gt;Filter&lt;br&gt;dtAt6pmWO&lt;br&gt;&lt;/font&gt;" style="strokeWidth=1;html=1;shape=mxgraph.flowchart.merge_or_storage;whiteSpace=wrap;fontSize=8;fillColor=#ffe6cc;strokeColor=#d79b00;" parent="1" vertex="1">
          <mxGeometry x="1020" y="420" width="80" height="50" as="geometry" />
        </mxCell>
        <mxCell id="wulNQaCiWQsxGU0T-WLS-160" style="edgeStyle=orthogonalEdgeStyle;rounded=0;orthogonalLoop=1;jettySize=auto;html=1;exitX=0.5;exitY=1;exitDx=0;exitDy=0;entryX=0.5;entryY=0;entryDx=0;entryDy=0;entryPerimeter=0;fontSize=8;fontColor=#B3B3B3;endArrow=block;endFill=1;strokeColor=#B3B3B3;" parent="1" source="wulNQaCiWQsxGU0T-WLS-161" target="wulNQaCiWQsxGU0T-WLS-155" edge="1">
          <mxGeometry relative="1" as="geometry" />
        </mxCell>
        <mxCell id="wulNQaCiWQsxGU0T-WLS-161" value="For each Row inÂ dtAt6pmWO" style="swimlane;fontSize=8;strokeColor=#B3B3B3;strokeWidth=1;fillColor=#f5f5f5;fontColor=#666666;" parent="1" vertex="1">
          <mxGeometry x="960" y="490" width="200" height="180" as="geometry">
            <mxRectangle x="380" y="300" width="120" height="23" as="alternateBounds" />
          </mxGeometry>
        </mxCell>
        <mxCell id="wulNQaCiWQsxGU0T-WLS-162" style="edgeStyle=orthogonalEdgeStyle;rounded=0;orthogonalLoop=1;jettySize=auto;html=1;exitX=0.5;exitY=1;exitDx=0;exitDy=0;entryX=0.5;entryY=0;entryDx=0;entryDy=0;entryPerimeter=0;fontSize=8;fontColor=#B3B3B3;endArrow=block;endFill=1;strokeColor=#B3B3B3;" parent="wulNQaCiWQsxGU0T-WLS-161" source="wulNQaCiWQsxGU0T-WLS-163" target="wulNQaCiWQsxGU0T-WLS-164" edge="1">
          <mxGeometry relative="1" as="geometry" />
        </mxCell>
        <mxCell id="wulNQaCiWQsxGU0T-WLS-163" value="&lt;font color=&quot;#666666&quot;&gt;&lt;span style=&quot;font-size: 8px;&quot;&gt;Assign: Ticket&lt;/span&gt;&lt;/font&gt;" style="rounded=1;whiteSpace=wrap;html=1;absoluteArcSize=1;arcSize=14;strokeWidth=1;fontColor=#000000;fillColor=#d7faf5;strokeColor=#00c2a8;" parent="wulNQaCiWQsxGU0T-WLS-161" vertex="1">
          <mxGeometry x="60" y="45" width="80" height="40" as="geometry" />
        </mxCell>
        <mxCell id="wulNQaCiWQsxGU0T-WLS-164" value="&lt;font color=&quot;#666666&quot; style=&quot;font-size: 8px;&quot;&gt;WO&lt;br&gt;&lt;/font&gt;" style="strokeWidth=1;html=1;shape=mxgraph.flowchart.start_2;whiteSpace=wrap;fillColor=#DAEDF2;strokeColor=#2E75B5;" parent="wulNQaCiWQsxGU0T-WLS-161" vertex="1">
          <mxGeometry x="75" y="110" width="50" height="50" as="geometry" />
        </mxCell>
        <mxCell id="wulNQaCiWQsxGU0T-WLS-165" value="" style="strokeWidth=1;html=1;shape=mxgraph.flowchart.annotation_2;align=left;labelPosition=right;pointerEvents=1;fontSize=6;fontColor=#666666;strokeColor=#B3B3B3;" parent="1" vertex="1">
          <mxGeometry x="910" y="150" width="30" height="250" as="geometry" />
        </mxCell>
        <mxCell id="wulNQaCiWQsxGU0T-WLS-166" value="Sequence: At6pmINC" style="text;html=1;strokeColor=none;fillColor=none;align=right;verticalAlign=middle;whiteSpace=wrap;rounded=0;fontSize=6;fontColor=#666666;" parent="1" vertex="1">
          <mxGeometry x="850" y="260" width="60" height="30" as="geometry" />
        </mxCell>
        <mxCell id="wulNQaCiWQsxGU0T-WLS-167" value="" style="strokeWidth=1;html=1;shape=mxgraph.flowchart.annotation_2;align=left;labelPosition=right;pointerEvents=1;fontSize=6;fontColor=#666666;strokeColor=#B3B3B3;" parent="1" vertex="1">
          <mxGeometry x="910" y="420" width="30" height="250" as="geometry" />
        </mxCell>
        <mxCell id="wulNQaCiWQsxGU0T-WLS-168" value="Sequence: At6pmWO" style="text;html=1;strokeColor=none;fillColor=none;align=right;verticalAlign=middle;whiteSpace=wrap;rounded=0;fontSize=6;fontColor=#666666;" parent="1" vertex="1">
          <mxGeometry x="850" y="530" width="60" height="30" as="geometry" />
        </mxCell>
        <mxCell id="wulNQaCiWQsxGU0T-WLS-171" style="edgeStyle=orthogonalEdgeStyle;rounded=0;orthogonalLoop=1;jettySize=auto;html=1;exitX=0.5;exitY=1;exitDx=0;exitDy=0;exitPerimeter=0;entryX=0.5;entryY=0;entryDx=0;entryDy=0;entryPerimeter=0;fontSize=8;fontColor=#B3B3B3;endArrow=block;endFill=1;strokeColor=#B3B3B3;" parent="1" source="wulNQaCiWQsxGU0T-WLS-172" target="wulNQaCiWQsxGU0T-WLS-174" edge="1">
          <mxGeometry relative="1" as="geometry" />
        </mxCell>
        <mxCell id="wulNQaCiWQsxGU0T-WLS-172" value="&lt;font color=&quot;#666666&quot; style=&quot;font-size: 8px;&quot;&gt;Start&lt;br&gt;At7pm&lt;br&gt;&lt;/font&gt;" style="strokeWidth=1;html=1;shape=mxgraph.flowchart.start_2;whiteSpace=wrap;fillColor=#DAEDF2;strokeColor=#2E75B5;" parent="1" vertex="1">
          <mxGeometry x="1435" y="80" width="50" height="50" as="geometry" />
        </mxCell>
        <mxCell id="wulNQaCiWQsxGU0T-WLS-173" style="edgeStyle=orthogonalEdgeStyle;rounded=0;orthogonalLoop=1;jettySize=auto;html=1;exitX=0.5;exitY=1;exitDx=0;exitDy=0;exitPerimeter=0;entryX=0.5;entryY=0;entryDx=0;entryDy=0;entryPerimeter=0;fontSize=8;fontColor=#B3B3B3;endArrow=block;endFill=1;strokeColor=#B3B3B3;" parent="1" source="wulNQaCiWQsxGU0T-WLS-174" target="wulNQaCiWQsxGU0T-WLS-176" edge="1">
          <mxGeometry relative="1" as="geometry" />
        </mxCell>
        <mxCell id="wulNQaCiWQsxGU0T-WLS-174" value="&lt;font color=&quot;#666666&quot;&gt;Filter&lt;br&gt;dtAt7pmINC&lt;br&gt;&lt;/font&gt;" style="strokeWidth=1;html=1;shape=mxgraph.flowchart.merge_or_storage;whiteSpace=wrap;fontSize=8;fillColor=#ffe6cc;strokeColor=#d79b00;" parent="1" vertex="1">
          <mxGeometry x="1420" y="150" width="80" height="50" as="geometry" />
        </mxCell>
        <mxCell id="wulNQaCiWQsxGU0T-WLS-175" style="edgeStyle=orthogonalEdgeStyle;rounded=0;orthogonalLoop=1;jettySize=auto;html=1;exitX=0.5;exitY=1;exitDx=0;exitDy=0;exitPerimeter=0;entryX=0.5;entryY=0;entryDx=0;entryDy=0;fontSize=8;fontColor=#B3B3B3;endArrow=block;endFill=1;strokeColor=#B3B3B3;" parent="1" source="wulNQaCiWQsxGU0T-WLS-176" target="wulNQaCiWQsxGU0T-WLS-178" edge="1">
          <mxGeometry relative="1" as="geometry" />
        </mxCell>
        <mxCell id="wulNQaCiWQsxGU0T-WLS-176" value="&lt;font color=&quot;#666666&quot;&gt;Filter&lt;br&gt;dtAt7pmINC&lt;br&gt;&lt;/font&gt;" style="strokeWidth=1;html=1;shape=mxgraph.flowchart.merge_or_storage;whiteSpace=wrap;fontSize=8;fillColor=#ffe6cc;strokeColor=#d79b00;" parent="1" vertex="1">
          <mxGeometry x="1420" y="220" width="80" height="50" as="geometry" />
        </mxCell>
        <mxCell id="wulNQaCiWQsxGU0T-WLS-177" style="edgeStyle=orthogonalEdgeStyle;rounded=0;orthogonalLoop=1;jettySize=auto;html=1;exitX=0.5;exitY=1;exitDx=0;exitDy=0;entryX=0.5;entryY=0;entryDx=0;entryDy=0;entryPerimeter=0;fontSize=8;fontColor=#B3B3B3;endArrow=block;endFill=1;strokeColor=#B3B3B3;" parent="1" source="wulNQaCiWQsxGU0T-WLS-178" target="wulNQaCiWQsxGU0T-WLS-184" edge="1">
          <mxGeometry relative="1" as="geometry" />
        </mxCell>
        <mxCell id="wulNQaCiWQsxGU0T-WLS-178" value="For each Row inÂ dtAt7pmINC" style="swimlane;fontSize=8;strokeColor=#B3B3B3;strokeWidth=1;fillColor=#f5f5f5;fontColor=#666666;" parent="1" vertex="1">
          <mxGeometry x="1360" y="290" width="200" height="180" as="geometry">
            <mxRectangle x="380" y="300" width="120" height="23" as="alternateBounds" />
          </mxGeometry>
        </mxCell>
        <mxCell id="wulNQaCiWQsxGU0T-WLS-179" style="edgeStyle=orthogonalEdgeStyle;rounded=0;orthogonalLoop=1;jettySize=auto;html=1;exitX=0.5;exitY=1;exitDx=0;exitDy=0;entryX=0.5;entryY=0;entryDx=0;entryDy=0;entryPerimeter=0;fontSize=8;fontColor=#B3B3B3;endArrow=block;endFill=1;strokeColor=#B3B3B3;" parent="wulNQaCiWQsxGU0T-WLS-178" source="wulNQaCiWQsxGU0T-WLS-180" target="wulNQaCiWQsxGU0T-WLS-181" edge="1">
          <mxGeometry relative="1" as="geometry" />
        </mxCell>
        <mxCell id="wulNQaCiWQsxGU0T-WLS-180" value="&lt;font color=&quot;#666666&quot;&gt;&lt;span style=&quot;font-size: 8px;&quot;&gt;Assign: Ticket&lt;/span&gt;&lt;/font&gt;" style="rounded=1;whiteSpace=wrap;html=1;absoluteArcSize=1;arcSize=14;strokeWidth=1;fontColor=#000000;fillColor=#d7faf5;strokeColor=#00c2a8;" parent="wulNQaCiWQsxGU0T-WLS-178" vertex="1">
          <mxGeometry x="60" y="45" width="80" height="40" as="geometry" />
        </mxCell>
        <mxCell id="wulNQaCiWQsxGU0T-WLS-181" value="&lt;font color=&quot;#666666&quot; style=&quot;font-size: 8px;&quot;&gt;INC&lt;br&gt;&lt;/font&gt;" style="strokeWidth=1;html=1;shape=mxgraph.flowchart.start_2;whiteSpace=wrap;fillColor=#DAEDF2;strokeColor=#2E75B5;" parent="wulNQaCiWQsxGU0T-WLS-178" vertex="1">
          <mxGeometry x="75" y="110" width="50" height="50" as="geometry" />
        </mxCell>
        <mxCell id="wulNQaCiWQsxGU0T-WLS-182" value="&lt;font color=&quot;#666666&quot; style=&quot;font-size: 8px;&quot;&gt;End&lt;br&gt;At7pm&lt;br&gt;&lt;/font&gt;" style="strokeWidth=1;html=1;shape=mxgraph.flowchart.start_2;whiteSpace=wrap;fillColor=#DAEDF2;strokeColor=#2E75B5;" parent="1" vertex="1">
          <mxGeometry x="1435" y="830" width="50" height="50" as="geometry" />
        </mxCell>
        <mxCell id="wulNQaCiWQsxGU0T-WLS-183" style="edgeStyle=orthogonalEdgeStyle;rounded=0;orthogonalLoop=1;jettySize=auto;html=1;exitX=0.5;exitY=1;exitDx=0;exitDy=0;exitPerimeter=0;entryX=0.5;entryY=0;entryDx=0;entryDy=0;entryPerimeter=0;fontSize=8;fontColor=#B3B3B3;endArrow=block;endFill=1;strokeColor=#B3B3B3;" parent="1" source="wulNQaCiWQsxGU0T-WLS-184" target="wulNQaCiWQsxGU0T-WLS-186" edge="1">
          <mxGeometry relative="1" as="geometry" />
        </mxCell>
        <mxCell id="wulNQaCiWQsxGU0T-WLS-184" value="&lt;font color=&quot;#666666&quot;&gt;Filter&lt;br&gt;dtAt7pmWO&lt;br&gt;&lt;/font&gt;" style="strokeWidth=1;html=1;shape=mxgraph.flowchart.merge_or_storage;whiteSpace=wrap;fontSize=8;fillColor=#ffe6cc;strokeColor=#d79b00;" parent="1" vertex="1">
          <mxGeometry x="1420" y="490" width="80" height="50" as="geometry" />
        </mxCell>
        <mxCell id="wulNQaCiWQsxGU0T-WLS-185" style="edgeStyle=orthogonalEdgeStyle;rounded=0;orthogonalLoop=1;jettySize=auto;html=1;exitX=0.5;exitY=1;exitDx=0;exitDy=0;exitPerimeter=0;entryX=0.5;entryY=0;entryDx=0;entryDy=0;fontSize=8;fontColor=#B3B3B3;endArrow=block;endFill=1;strokeColor=#B3B3B3;" parent="1" source="wulNQaCiWQsxGU0T-WLS-186" target="wulNQaCiWQsxGU0T-WLS-188" edge="1">
          <mxGeometry relative="1" as="geometry" />
        </mxCell>
        <mxCell id="wulNQaCiWQsxGU0T-WLS-186" value="&lt;font color=&quot;#666666&quot;&gt;Filter&lt;br&gt;dtAt7pmWO&lt;br&gt;&lt;/font&gt;" style="strokeWidth=1;html=1;shape=mxgraph.flowchart.merge_or_storage;whiteSpace=wrap;fontSize=8;fillColor=#ffe6cc;strokeColor=#d79b00;" parent="1" vertex="1">
          <mxGeometry x="1420" y="560" width="80" height="50" as="geometry" />
        </mxCell>
        <mxCell id="wulNQaCiWQsxGU0T-WLS-187" style="edgeStyle=orthogonalEdgeStyle;rounded=0;orthogonalLoop=1;jettySize=auto;html=1;exitX=0.5;exitY=1;exitDx=0;exitDy=0;entryX=0.5;entryY=0;entryDx=0;entryDy=0;entryPerimeter=0;fontSize=8;fontColor=#B3B3B3;endArrow=block;endFill=1;strokeColor=#B3B3B3;" parent="1" source="wulNQaCiWQsxGU0T-WLS-188" target="wulNQaCiWQsxGU0T-WLS-182" edge="1">
          <mxGeometry relative="1" as="geometry" />
        </mxCell>
        <mxCell id="wulNQaCiWQsxGU0T-WLS-188" value="For each Row inÂ dtAt7pmWO" style="swimlane;fontSize=8;strokeColor=#B3B3B3;strokeWidth=1;fillColor=#f5f5f5;fontColor=#666666;" parent="1" vertex="1">
          <mxGeometry x="1360" y="630" width="200" height="180" as="geometry">
            <mxRectangle x="380" y="300" width="120" height="23" as="alternateBounds" />
          </mxGeometry>
        </mxCell>
        <mxCell id="wulNQaCiWQsxGU0T-WLS-189" style="edgeStyle=orthogonalEdgeStyle;rounded=0;orthogonalLoop=1;jettySize=auto;html=1;exitX=0.5;exitY=1;exitDx=0;exitDy=0;entryX=0.5;entryY=0;entryDx=0;entryDy=0;entryPerimeter=0;fontSize=8;fontColor=#B3B3B3;endArrow=block;endFill=1;strokeColor=#B3B3B3;" parent="wulNQaCiWQsxGU0T-WLS-188" source="wulNQaCiWQsxGU0T-WLS-190" target="wulNQaCiWQsxGU0T-WLS-191" edge="1">
          <mxGeometry relative="1" as="geometry" />
        </mxCell>
        <mxCell id="wulNQaCiWQsxGU0T-WLS-190" value="&lt;font color=&quot;#666666&quot;&gt;&lt;span style=&quot;font-size: 8px;&quot;&gt;Assign: Ticket&lt;/span&gt;&lt;/font&gt;" style="rounded=1;whiteSpace=wrap;html=1;absoluteArcSize=1;arcSize=14;strokeWidth=1;fontColor=#000000;fillColor=#d7faf5;strokeColor=#00c2a8;" parent="wulNQaCiWQsxGU0T-WLS-188" vertex="1">
          <mxGeometry x="60" y="45" width="80" height="40" as="geometry" />
        </mxCell>
        <mxCell id="wulNQaCiWQsxGU0T-WLS-191" value="&lt;font color=&quot;#666666&quot; style=&quot;font-size: 8px;&quot;&gt;WO&lt;br&gt;&lt;/font&gt;" style="strokeWidth=1;html=1;shape=mxgraph.flowchart.start_2;whiteSpace=wrap;fillColor=#DAEDF2;strokeColor=#2E75B5;" parent="wulNQaCiWQsxGU0T-WLS-188" vertex="1">
          <mxGeometry x="75" y="110" width="50" height="50" as="geometry" />
        </mxCell>
        <mxCell id="wulNQaCiWQsxGU0T-WLS-192" value="" style="strokeWidth=1;html=1;shape=mxgraph.flowchart.annotation_2;align=left;labelPosition=right;pointerEvents=1;fontSize=6;fontColor=#666666;strokeColor=#B3B3B3;" parent="1" vertex="1">
          <mxGeometry x="1310" y="150" width="30" height="320" as="geometry" />
        </mxCell>
        <mxCell id="wulNQaCiWQsxGU0T-WLS-193" value="Sequence: At7pmINC" style="text;html=1;strokeColor=none;fillColor=none;align=right;verticalAlign=middle;whiteSpace=wrap;rounded=0;fontSize=6;fontColor=#666666;" parent="1" vertex="1">
          <mxGeometry x="1250" y="295" width="60" height="30" as="geometry" />
        </mxCell>
        <mxCell id="wulNQaCiWQsxGU0T-WLS-194" value="" style="strokeWidth=1;html=1;shape=mxgraph.flowchart.annotation_2;align=left;labelPosition=right;pointerEvents=1;fontSize=6;fontColor=#666666;strokeColor=#B3B3B3;" parent="1" vertex="1">
          <mxGeometry x="1310" y="490" width="30" height="320" as="geometry" />
        </mxCell>
        <mxCell id="wulNQaCiWQsxGU0T-WLS-195" value="Sequence: At7pmWO" style="text;html=1;strokeColor=none;fillColor=none;align=right;verticalAlign=middle;whiteSpace=wrap;rounded=0;fontSize=6;fontColor=#666666;" parent="1" vertex="1">
          <mxGeometry x="1250" y="635" width="60" height="30" as="geometry" />
        </mxCell>
        <mxCell id="wulNQaCiWQsxGU0T-WLS-196" style="edgeStyle=orthogonalEdgeStyle;rounded=0;orthogonalLoop=1;jettySize=auto;html=1;exitX=0.5;exitY=1;exitDx=0;exitDy=0;entryX=0.5;entryY=0;entryDx=0;entryDy=0;endArrow=block;endFill=1;strokeColor=#B3B3B3;" parent="1" source="wulNQaCiWQsxGU0T-WLS-197" target="wulNQaCiWQsxGU0T-WLS-198" edge="1">
          <mxGeometry relative="1" as="geometry" />
        </mxCell>
        <mxCell id="wulNQaCiWQsxGU0T-WLS-197" value="&lt;font color=&quot;#666666&quot; style=&quot;font-size: 8px;&quot;&gt;Use Browser &lt;br&gt;Chrome&lt;/font&gt;" style="rounded=1;whiteSpace=wrap;html=1;absoluteArcSize=1;arcSize=14;strokeWidth=1;fontColor=#000000;fillColor=#d7faf5;strokeColor=#00c2a8;" parent="1" vertex="1">
          <mxGeometry x="1680" y="150" width="80" height="40" as="geometry" />
        </mxCell>
        <mxCell id="wulNQaCiWQsxGU0T-WLS-198" value="&lt;font color=&quot;#666666&quot;&gt;&lt;span style=&quot;font-size: 8px;&quot;&gt;Log in&lt;/span&gt;&lt;/font&gt;" style="rounded=1;whiteSpace=wrap;html=1;absoluteArcSize=1;arcSize=14;strokeWidth=1;fontColor=#000000;fillColor=#d7faf5;strokeColor=#00c2a8;" parent="1" vertex="1">
          <mxGeometry x="1680" y="210" width="80" height="40" as="geometry" />
        </mxCell>
        <mxCell id="wulNQaCiWQsxGU0T-WLS-199" value="&lt;font color=&quot;#666666&quot;&gt;&lt;span style=&quot;font-size: 8px;&quot;&gt;Search Ticket&lt;/span&gt;&lt;/font&gt;" style="rounded=1;whiteSpace=wrap;html=1;absoluteArcSize=1;arcSize=14;strokeWidth=1;fontColor=#000000;fillColor=#d7faf5;strokeColor=#00c2a8;" parent="1" vertex="1">
          <mxGeometry x="1680" y="270" width="80" height="40" as="geometry" />
        </mxCell>
        <mxCell id="wulNQaCiWQsxGU0T-WLS-200" style="edgeStyle=orthogonalEdgeStyle;rounded=0;orthogonalLoop=1;jettySize=auto;html=1;exitX=0.5;exitY=1;exitDx=0;exitDy=0;entryX=0.5;entryY=0;entryDx=0;entryDy=0;strokeColor=#B3B3B3;endArrow=block;endFill=1;" parent="1" source="wulNQaCiWQsxGU0T-WLS-198" target="wulNQaCiWQsxGU0T-WLS-199" edge="1">
          <mxGeometry relative="1" as="geometry" />
        </mxCell>
        <mxCell id="wulNQaCiWQsxGU0T-WLS-209" style="edgeStyle=orthogonalEdgeStyle;rounded=0;orthogonalLoop=1;jettySize=auto;html=1;exitX=0.5;exitY=1;exitDx=0;exitDy=0;entryX=0.5;entryY=0;entryDx=0;entryDy=0;fontSize=8;fontColor=#B3B3B3;endArrow=block;endFill=1;strokeColor=#B3B3B3;" parent="1" source="wulNQaCiWQsxGU0T-WLS-201" target="wulNQaCiWQsxGU0T-WLS-205" edge="1">
          <mxGeometry relative="1" as="geometry" />
        </mxCell>
        <mxCell id="wulNQaCiWQsxGU0T-WLS-201" value="&lt;font color=&quot;#666666&quot;&gt;&lt;span style=&quot;font-size: 8px;&quot;&gt;Check App State&lt;/span&gt;&lt;/font&gt;" style="rounded=1;whiteSpace=wrap;html=1;absoluteArcSize=1;arcSize=14;strokeWidth=1;fontColor=#000000;fillColor=#d7faf5;strokeColor=#00c2a8;" parent="1" vertex="1">
          <mxGeometry x="1680" y="330" width="80" height="40" as="geometry" />
        </mxCell>
        <mxCell id="wulNQaCiWQsxGU0T-WLS-202" style="edgeStyle=orthogonalEdgeStyle;rounded=0;orthogonalLoop=1;jettySize=auto;html=1;exitX=0.5;exitY=1;exitDx=0;exitDy=0;entryX=0.5;entryY=0;entryDx=0;entryDy=0;strokeColor=#B3B3B3;endArrow=block;endFill=1;" parent="1" source="wulNQaCiWQsxGU0T-WLS-199" target="wulNQaCiWQsxGU0T-WLS-201" edge="1">
          <mxGeometry relative="1" as="geometry" />
        </mxCell>
        <mxCell id="wulNQaCiWQsxGU0T-WLS-204" style="edgeStyle=orthogonalEdgeStyle;rounded=0;orthogonalLoop=1;jettySize=auto;html=1;exitX=0.5;exitY=1;exitDx=0;exitDy=0;exitPerimeter=0;entryX=0.5;entryY=0;entryDx=0;entryDy=0;fontSize=8;fontColor=#B3B3B3;endArrow=block;endFill=1;strokeColor=#B3B3B3;" parent="1" source="wulNQaCiWQsxGU0T-WLS-203" target="wulNQaCiWQsxGU0T-WLS-197" edge="1">
          <mxGeometry relative="1" as="geometry" />
        </mxCell>
        <mxCell id="wulNQaCiWQsxGU0T-WLS-203" value="&lt;font color=&quot;#666666&quot; style=&quot;font-size: 8px;&quot;&gt;Start&lt;br&gt;INC&lt;br&gt;&lt;/font&gt;" style="strokeWidth=1;html=1;shape=mxgraph.flowchart.start_2;whiteSpace=wrap;fillColor=#DAEDF2;strokeColor=#2E75B5;" parent="1" vertex="1">
          <mxGeometry x="1695" y="80" width="50" height="50" as="geometry" />
        </mxCell>
        <mxCell id="wulNQaCiWQsxGU0T-WLS-210" style="edgeStyle=orthogonalEdgeStyle;rounded=0;orthogonalLoop=1;jettySize=auto;html=1;exitX=0.5;exitY=1;exitDx=0;exitDy=0;entryX=0.5;entryY=0;entryDx=0;entryDy=0;fontSize=8;fontColor=#B3B3B3;endArrow=block;endFill=1;strokeColor=#B3B3B3;" parent="1" source="wulNQaCiWQsxGU0T-WLS-205" target="wulNQaCiWQsxGU0T-WLS-206" edge="1">
          <mxGeometry relative="1" as="geometry" />
        </mxCell>
        <mxCell id="wulNQaCiWQsxGU0T-WLS-205" value="&lt;font color=&quot;#666666&quot;&gt;&lt;span style=&quot;font-size: 8px;&quot;&gt;Change Status&lt;/span&gt;&lt;/font&gt;" style="rounded=1;whiteSpace=wrap;html=1;absoluteArcSize=1;arcSize=14;strokeWidth=1;fontColor=#000000;fillColor=#d7faf5;strokeColor=#00c2a8;" parent="1" vertex="1">
          <mxGeometry x="1680" y="390" width="80" height="40" as="geometry" />
        </mxCell>
        <mxCell id="wulNQaCiWQsxGU0T-WLS-211" style="edgeStyle=orthogonalEdgeStyle;rounded=0;orthogonalLoop=1;jettySize=auto;html=1;exitX=0.5;exitY=1;exitDx=0;exitDy=0;entryX=0.5;entryY=0;entryDx=0;entryDy=0;fontSize=8;fontColor=#B3B3B3;endArrow=block;endFill=1;strokeColor=#B3B3B3;" parent="1" source="wulNQaCiWQsxGU0T-WLS-206" target="wulNQaCiWQsxGU0T-WLS-207" edge="1">
          <mxGeometry relative="1" as="geometry" />
        </mxCell>
        <mxCell id="wulNQaCiWQsxGU0T-WLS-206" value="&lt;font color=&quot;#666666&quot;&gt;&lt;span style=&quot;font-size: 8px;&quot;&gt;Change Reason&lt;/span&gt;&lt;/font&gt;" style="rounded=1;whiteSpace=wrap;html=1;absoluteArcSize=1;arcSize=14;strokeWidth=1;fontColor=#000000;fillColor=#d7faf5;strokeColor=#00c2a8;" parent="1" vertex="1">
          <mxGeometry x="1680" y="450" width="80" height="40" as="geometry" />
        </mxCell>
        <mxCell id="wulNQaCiWQsxGU0T-WLS-212" style="edgeStyle=orthogonalEdgeStyle;rounded=0;orthogonalLoop=1;jettySize=auto;html=1;exitX=0.5;exitY=1;exitDx=0;exitDy=0;entryX=0.5;entryY=0;entryDx=0;entryDy=0;fontSize=8;fontColor=#B3B3B3;endArrow=block;endFill=1;strokeColor=#B3B3B3;" parent="1" source="wulNQaCiWQsxGU0T-WLS-207" target="wulNQaCiWQsxGU0T-WLS-208" edge="1">
          <mxGeometry relative="1" as="geometry" />
        </mxCell>
        <mxCell id="wulNQaCiWQsxGU0T-WLS-207" value="&lt;font color=&quot;#666666&quot;&gt;&lt;span style=&quot;font-size: 8px;&quot;&gt;Set Wake-Up Date&lt;/span&gt;&lt;/font&gt;" style="rounded=1;whiteSpace=wrap;html=1;absoluteArcSize=1;arcSize=14;strokeWidth=1;fontColor=#000000;fillColor=#d7faf5;strokeColor=#00c2a8;" parent="1" vertex="1">
          <mxGeometry x="1680" y="510" width="80" height="40" as="geometry" />
        </mxCell>
        <mxCell id="wulNQaCiWQsxGU0T-WLS-214" style="edgeStyle=orthogonalEdgeStyle;rounded=0;orthogonalLoop=1;jettySize=auto;html=1;exitX=0.5;exitY=1;exitDx=0;exitDy=0;entryX=0.5;entryY=0;entryDx=0;entryDy=0;entryPerimeter=0;fontSize=8;fontColor=#B3B3B3;endArrow=block;endFill=1;strokeColor=#B3B3B3;" parent="1" source="wulNQaCiWQsxGU0T-WLS-208" target="wulNQaCiWQsxGU0T-WLS-213" edge="1">
          <mxGeometry relative="1" as="geometry" />
        </mxCell>
        <mxCell id="wulNQaCiWQsxGU0T-WLS-208" value="&lt;font color=&quot;#666666&quot;&gt;&lt;span style=&quot;font-size: 8px;&quot;&gt;Save Ticket&lt;/span&gt;&lt;/font&gt;" style="rounded=1;whiteSpace=wrap;html=1;absoluteArcSize=1;arcSize=14;strokeWidth=1;fontColor=#000000;fillColor=#d7faf5;strokeColor=#00c2a8;" parent="1" vertex="1">
          <mxGeometry x="1680" y="570" width="80" height="40" as="geometry" />
        </mxCell>
        <mxCell id="wulNQaCiWQsxGU0T-WLS-213" value="&lt;font color=&quot;#666666&quot; style=&quot;font-size: 8px;&quot;&gt;End&lt;br&gt;INC&lt;br&gt;&lt;/font&gt;" style="strokeWidth=1;html=1;shape=mxgraph.flowchart.start_2;whiteSpace=wrap;fillColor=#DAEDF2;strokeColor=#2E75B5;" parent="1" vertex="1">
          <mxGeometry x="1695" y="630" width="50" height="50" as="geometry" />
        </mxCell>
        <mxCell id="wulNQaCiWQsxGU0T-WLS-215" style="edgeStyle=orthogonalEdgeStyle;rounded=0;orthogonalLoop=1;jettySize=auto;html=1;exitX=0.5;exitY=1;exitDx=0;exitDy=0;entryX=0.5;entryY=0;entryDx=0;entryDy=0;endArrow=block;endFill=1;strokeColor=#B3B3B3;" parent="1" source="wulNQaCiWQsxGU0T-WLS-216" target="wulNQaCiWQsxGU0T-WLS-217" edge="1">
          <mxGeometry relative="1" as="geometry" />
        </mxCell>
        <mxCell id="wulNQaCiWQsxGU0T-WLS-216" value="&lt;font color=&quot;#666666&quot; style=&quot;font-size: 8px;&quot;&gt;Use Browser &lt;br&gt;Chrome&lt;/font&gt;" style="rounded=1;whiteSpace=wrap;html=1;absoluteArcSize=1;arcSize=14;strokeWidth=1;fontColor=#000000;fillColor=#d7faf5;strokeColor=#00c2a8;" parent="1" vertex="1">
          <mxGeometry x="1880" y="150" width="80" height="40" as="geometry" />
        </mxCell>
        <mxCell id="wulNQaCiWQsxGU0T-WLS-217" value="&lt;font color=&quot;#666666&quot;&gt;&lt;span style=&quot;font-size: 8px;&quot;&gt;Log in&lt;/span&gt;&lt;/font&gt;" style="rounded=1;whiteSpace=wrap;html=1;absoluteArcSize=1;arcSize=14;strokeWidth=1;fontColor=#000000;fillColor=#d7faf5;strokeColor=#00c2a8;" parent="1" vertex="1">
          <mxGeometry x="1880" y="210" width="80" height="40" as="geometry" />
        </mxCell>
        <mxCell id="wulNQaCiWQsxGU0T-WLS-218" value="&lt;font color=&quot;#666666&quot;&gt;&lt;span style=&quot;font-size: 8px;&quot;&gt;Search Ticket&lt;/span&gt;&lt;/font&gt;" style="rounded=1;whiteSpace=wrap;html=1;absoluteArcSize=1;arcSize=14;strokeWidth=1;fontColor=#000000;fillColor=#d7faf5;strokeColor=#00c2a8;" parent="1" vertex="1">
          <mxGeometry x="1880" y="270" width="80" height="40" as="geometry" />
        </mxCell>
        <mxCell id="wulNQaCiWQsxGU0T-WLS-219" style="edgeStyle=orthogonalEdgeStyle;rounded=0;orthogonalLoop=1;jettySize=auto;html=1;exitX=0.5;exitY=1;exitDx=0;exitDy=0;entryX=0.5;entryY=0;entryDx=0;entryDy=0;strokeColor=#B3B3B3;endArrow=block;endFill=1;" parent="1" source="wulNQaCiWQsxGU0T-WLS-217" target="wulNQaCiWQsxGU0T-WLS-218" edge="1">
          <mxGeometry relative="1" as="geometry" />
        </mxCell>
        <mxCell id="wulNQaCiWQsxGU0T-WLS-220" style="edgeStyle=orthogonalEdgeStyle;rounded=0;orthogonalLoop=1;jettySize=auto;html=1;exitX=0.5;exitY=1;exitDx=0;exitDy=0;entryX=0.5;entryY=0;entryDx=0;entryDy=0;fontSize=8;fontColor=#B3B3B3;endArrow=block;endFill=1;strokeColor=#B3B3B3;" parent="1" source="wulNQaCiWQsxGU0T-WLS-221" target="wulNQaCiWQsxGU0T-WLS-226" edge="1">
          <mxGeometry relative="1" as="geometry" />
        </mxCell>
        <mxCell id="wulNQaCiWQsxGU0T-WLS-221" value="&lt;font color=&quot;#666666&quot;&gt;&lt;span style=&quot;font-size: 8px;&quot;&gt;Check App State&lt;/span&gt;&lt;/font&gt;" style="rounded=1;whiteSpace=wrap;html=1;absoluteArcSize=1;arcSize=14;strokeWidth=1;fontColor=#000000;fillColor=#d7faf5;strokeColor=#00c2a8;" parent="1" vertex="1">
          <mxGeometry x="1880" y="330" width="80" height="40" as="geometry" />
        </mxCell>
        <mxCell id="wulNQaCiWQsxGU0T-WLS-222" style="edgeStyle=orthogonalEdgeStyle;rounded=0;orthogonalLoop=1;jettySize=auto;html=1;exitX=0.5;exitY=1;exitDx=0;exitDy=0;entryX=0.5;entryY=0;entryDx=0;entryDy=0;strokeColor=#B3B3B3;endArrow=block;endFill=1;" parent="1" source="wulNQaCiWQsxGU0T-WLS-218" target="wulNQaCiWQsxGU0T-WLS-221" edge="1">
          <mxGeometry relative="1" as="geometry" />
        </mxCell>
        <mxCell id="wulNQaCiWQsxGU0T-WLS-223" style="edgeStyle=orthogonalEdgeStyle;rounded=0;orthogonalLoop=1;jettySize=auto;html=1;exitX=0.5;exitY=1;exitDx=0;exitDy=0;exitPerimeter=0;entryX=0.5;entryY=0;entryDx=0;entryDy=0;fontSize=8;fontColor=#B3B3B3;endArrow=block;endFill=1;strokeColor=#B3B3B3;" parent="1" source="wulNQaCiWQsxGU0T-WLS-224" target="wulNQaCiWQsxGU0T-WLS-216" edge="1">
          <mxGeometry relative="1" as="geometry" />
        </mxCell>
        <mxCell id="wulNQaCiWQsxGU0T-WLS-224" value="&lt;font color=&quot;#666666&quot; style=&quot;font-size: 8px;&quot;&gt;Start&lt;br&gt;WO&lt;br&gt;&lt;/font&gt;" style="strokeWidth=1;html=1;shape=mxgraph.flowchart.start_2;whiteSpace=wrap;fillColor=#DAEDF2;strokeColor=#2E75B5;" parent="1" vertex="1">
          <mxGeometry x="1895" y="80" width="50" height="50" as="geometry" />
        </mxCell>
        <mxCell id="wulNQaCiWQsxGU0T-WLS-225" style="edgeStyle=orthogonalEdgeStyle;rounded=0;orthogonalLoop=1;jettySize=auto;html=1;exitX=0.5;exitY=1;exitDx=0;exitDy=0;entryX=0.5;entryY=0;entryDx=0;entryDy=0;fontSize=8;fontColor=#B3B3B3;endArrow=block;endFill=1;strokeColor=#B3B3B3;" parent="1" source="wulNQaCiWQsxGU0T-WLS-226" target="wulNQaCiWQsxGU0T-WLS-228" edge="1">
          <mxGeometry relative="1" as="geometry" />
        </mxCell>
        <mxCell id="wulNQaCiWQsxGU0T-WLS-226" value="&lt;font color=&quot;#666666&quot;&gt;&lt;span style=&quot;font-size: 8px;&quot;&gt;Change Status&lt;/span&gt;&lt;/font&gt;" style="rounded=1;whiteSpace=wrap;html=1;absoluteArcSize=1;arcSize=14;strokeWidth=1;fontColor=#000000;fillColor=#d7faf5;strokeColor=#00c2a8;" parent="1" vertex="1">
          <mxGeometry x="1880" y="390" width="80" height="40" as="geometry" />
        </mxCell>
        <mxCell id="wulNQaCiWQsxGU0T-WLS-227" style="edgeStyle=orthogonalEdgeStyle;rounded=0;orthogonalLoop=1;jettySize=auto;html=1;exitX=0.5;exitY=1;exitDx=0;exitDy=0;entryX=0.5;entryY=0;entryDx=0;entryDy=0;fontSize=8;fontColor=#B3B3B3;endArrow=block;endFill=1;strokeColor=#B3B3B3;" parent="1" source="wulNQaCiWQsxGU0T-WLS-228" target="wulNQaCiWQsxGU0T-WLS-230" edge="1">
          <mxGeometry relative="1" as="geometry" />
        </mxCell>
        <mxCell id="wulNQaCiWQsxGU0T-WLS-228" value="&lt;font color=&quot;#666666&quot;&gt;&lt;span style=&quot;font-size: 8px;&quot;&gt;Change Reason&lt;/span&gt;&lt;/font&gt;" style="rounded=1;whiteSpace=wrap;html=1;absoluteArcSize=1;arcSize=14;strokeWidth=1;fontColor=#000000;fillColor=#d7faf5;strokeColor=#00c2a8;" parent="1" vertex="1">
          <mxGeometry x="1880" y="450" width="80" height="40" as="geometry" />
        </mxCell>
        <mxCell id="wulNQaCiWQsxGU0T-WLS-229" style="edgeStyle=orthogonalEdgeStyle;rounded=0;orthogonalLoop=1;jettySize=auto;html=1;exitX=0.5;exitY=1;exitDx=0;exitDy=0;entryX=0.5;entryY=0;entryDx=0;entryDy=0;fontSize=8;fontColor=#B3B3B3;endArrow=block;endFill=1;strokeColor=#B3B3B3;" parent="1" source="wulNQaCiWQsxGU0T-WLS-230" target="wulNQaCiWQsxGU0T-WLS-232" edge="1">
          <mxGeometry relative="1" as="geometry" />
        </mxCell>
        <mxCell id="wulNQaCiWQsxGU0T-WLS-230" value="&lt;font color=&quot;#666666&quot;&gt;&lt;span style=&quot;font-size: 8px;&quot;&gt;Set Wake-Up Date&lt;/span&gt;&lt;/font&gt;" style="rounded=1;whiteSpace=wrap;html=1;absoluteArcSize=1;arcSize=14;strokeWidth=1;fontColor=#000000;fillColor=#d7faf5;strokeColor=#00c2a8;" parent="1" vertex="1">
          <mxGeometry x="1880" y="510" width="80" height="40" as="geometry" />
        </mxCell>
        <mxCell id="wulNQaCiWQsxGU0T-WLS-231" style="edgeStyle=orthogonalEdgeStyle;rounded=0;orthogonalLoop=1;jettySize=auto;html=1;exitX=0.5;exitY=1;exitDx=0;exitDy=0;entryX=0.5;entryY=0;entryDx=0;entryDy=0;entryPerimeter=0;fontSize=8;fontColor=#B3B3B3;endArrow=block;endFill=1;strokeColor=#B3B3B3;" parent="1" source="wulNQaCiWQsxGU0T-WLS-232" target="wulNQaCiWQsxGU0T-WLS-233" edge="1">
          <mxGeometry relative="1" as="geometry" />
        </mxCell>
        <mxCell id="wulNQaCiWQsxGU0T-WLS-232" value="&lt;font color=&quot;#666666&quot;&gt;&lt;span style=&quot;font-size: 8px;&quot;&gt;Save Ticket&lt;/span&gt;&lt;/font&gt;" style="rounded=1;whiteSpace=wrap;html=1;absoluteArcSize=1;arcSize=14;strokeWidth=1;fontColor=#000000;fillColor=#d7faf5;strokeColor=#00c2a8;" parent="1" vertex="1">
          <mxGeometry x="1880" y="570" width="80" height="40" as="geometry" />
        </mxCell>
        <mxCell id="wulNQaCiWQsxGU0T-WLS-233" value="&lt;font color=&quot;#666666&quot; style=&quot;font-size: 8px;&quot;&gt;End&lt;br&gt;WO&lt;br&gt;&lt;/font&gt;" style="strokeWidth=1;html=1;shape=mxgraph.flowchart.start_2;whiteSpace=wrap;fillColor=#DAEDF2;strokeColor=#2E75B5;" parent="1" vertex="1">
          <mxGeometry x="1895" y="630" width="50" height="50" as="geometry" />
        </mxCell>
      </root>
    </mxGraphModel>
  </diagram>
</mxfile>
